<svg version="1.1"
      xmlns="http://www.w3.org/2000/svg"
      xmlns:xlink="http://www.w3.org/1999/xlink"  id="snapshot-47043" width="250" height="250" viewBox="0 0 250 250"><desc>This image was made on Patterninja.com</desc><defs>
<!-- image 38903 -->
<g id="transformed-38903" data-image="38903" transform="translate(219.29117561874926, 210.98485196156165) rotate(1, 28.708824381250746, 33.015148038438355)"><g><svg version="1.1" width="57.41764876250149px" height="66.03029607687671px" viewBox="0 0 57.41764876250149 66.03029607687671"><g id="original-38903"><svg xmlns="http://www.w3.org/2000/svg" viewBox="0 0 56 64" xmlns:xlink="http://www.w3.org/1999/xlink" version="1.1" preserveAspectRatio="xMidYMid meet">
  <path fill-rule="evenodd" d="M54 64H4V12h50a2 2 0 0 1 2 2v48a2 2 0 0 1-2 2z" fill="rgba(80, 158, 204, 0.25)" stroke="none"/>
  <path fill-rule="evenodd" d="M4 20h48v40H4z" fill="rgba(255, 255, 255, 0.25)" stroke="none"/>
  <path fill-rule="evenodd" d="M4 52h44v2H4v-2zm0 4h44v2H4v-2z" fill="rgba(204, 204, 204, 0.25)" stroke="none"/>
  <path fill-rule="evenodd" d="M54 50H12V2h42a2 2 0 0 1 2 2v44a2 2 0 0 1-2 2z" fill="rgba(132, 210, 255, 0.25)" stroke="none"/>
  <path fill-rule="evenodd" d="M4 50v10h8v4H2a2 2 0 0 1-2-2V4a2 2 0 0 1 2-2h10v48H4z" fill="rgba(77, 119, 143, 0.25)" stroke="none"/>
  <path fill-rule="evenodd" d="M40 0h12v20l-6-4-6 4z" fill="rgba(241, 65, 68, 0.25)" stroke="none"/>
</svg>
</g></svg></g></g>
<!-- /image 38903 -->

<!-- image 12014 -->
<g id="transformed-12014" data-image="12014" transform="translate(26.442358807800588, 22.442358807800595) rotate(349, 32.55764119219941, 32.557641192199405)"><g><svg version="1.1" width="65.11528238439882px" height="65.11528238439881px" viewBox="0 0 65.11528238439882 65.11528238439881"><g id="original-12014"><svg xmlns="http://www.w3.org/2000/svg" viewBox="0 0 71 71" xmlns:xlink="http://www.w3.org/1999/xlink" version="1.1" preserveAspectRatio="xMidYMid meet">
  <path fill-rule="evenodd" d="M40 8.024l7.648 7.652-35.181 35.2-7.648-7.652z" fill="rgba(69, 111, 216, 0.25)" stroke="none"/>
  <path fill-rule="evenodd" d="M46.65 14.676l8.648 8.651-35.181 35.2-8.648-8.652z" fill="rgba(86, 127, 229, 0.25)" stroke="none"/>
  <path fill-rule="evenodd" d="M54.3 22.327l8.648 8.652-35.181 35.2-8.648-8.651z" fill="rgba(50, 88, 182, 0.25)" stroke="none"/>
  <path fill-rule="evenodd" d="M55.3 1.9l13.767 13.774a6.5 6.5 0 0 1 0 9.182L46.12 1.9a6.489 6.489 0 0 1 9.18 0z" fill="rgba(255, 114, 177, 0.25)" stroke="none"/>
  <path fill-rule="evenodd" d="M47.12.9l22.945 22.956a1.083 1.083 0 0 1 0 1.53l-5.589 5.591a1.081 1.081 0 0 1-1.53 0L40 8.024a1.084 1.084 0 0 1 0-1.531L45.589.902A1.082 1.082 0 0 1 47.12.9z" fill="rgba(198, 198, 198, 0.25)" stroke="none"/>
  <path fill-rule="evenodd" d="M4.821 43.222l22.944 22.955L1 70z" fill="rgba(255, 200, 51, 0.25)" stroke="none"/>
  <path fill-rule="evenodd" d="M11.366 68.664L0 71l2.338-11.373z" fill="rgba(86, 127, 229, 0.25)" stroke="none"/>
</svg>
</g></svg></g></g>
<!-- /image 12014 -->

<!-- image 58010 -->
<g id="transformed-58010" data-image="58010" transform="translate(94.54753679437377, 78.98333796039273) rotate(1, 22.452463205626238, 30.01666203960727)"><g><svg version="1.1" width="44.904926411252475px" height="60.03332407921454px" viewBox="0 0 44.904926411252475 60.03332407921454"><g id="original-58010"><svg xmlns="http://www.w3.org/2000/svg" viewBox="0 0 48 64" xmlns:xlink="http://www.w3.org/1999/xlink" version="1.1" preserveAspectRatio="xMidYMid meet">
  <rect width="48" height="64" fill-rule="evenodd" rx="6" fill="rgba(142, 216, 66, 0.25)" stroke="none"/>
  <rect width="40" height="16" x="4" y="4" fill-rule="evenodd" rx="4" fill="rgba(227, 206, 193, 0.25)" stroke="none"/>
  <rect width="18" height="16" x="26" y="44" fill-rule="evenodd" rx="4" fill="rgba(155, 113, 85, 0.25)" stroke="none"/>
  <path fill-rule="evenodd" d="M30 49h10v2H30v-2zm0 4h10v2H30v-2z" fill="rgba(0, 0, 0, 0.25)" stroke="none"/>
  <path fill-rule="evenodd" d="M8 44h10a4 4 0 0 1 4 4v8a4 4 0 0 1-4 4H8a4 4 0 0 1-4-4v-8a4 4 0 0 1 4-4zm22-20h10a4 4 0 0 1 4 4v8a4 4 0 0 1-4 4H30a4 4 0 0 1-4-4v-8a4 4 0 0 1 4-4zM8 24h10a4 4 0 0 1 4 4v8a4 4 0 0 1-4 4H8a4 4 0 0 1-4-4v-8a4 4 0 0 1 4-4z" fill="rgba(155, 113, 85, 0.25)" stroke="none"/>
  <path fill-rule="evenodd" d="M11.585 52l-2.828 2.828 1.415 1.414 2.827-2.828 2.829 2.829 1.415-1.414L14.414 52l2.829-2.829-1.415-1.414-2.829 2.829-2.827-2.828-1.415 1.414z" fill="rgba(0, 0, 0, 0.25)" stroke="none"/>
  <path fill-rule="evenodd" d="M12 31H8v2h4v4h2v-4h4v-2h-4v-4h-2z" fill="rgba(0, 0, 0, 0.25)" stroke="none"/>
  <path fill-rule="evenodd" d="M30 31h10v2H30z" fill="rgba(0, 0, 0, 0.25)" stroke="none"/>
</svg>
</g></svg></g></g>
<!-- /image 58010 -->

<!-- image 59209 -->
<g id="transformed-59209" data-image="59209" transform="translate(150.56231283425106, 147.7646581360131) rotate(309, 30.43768716574895, 36.235341863986875)"><g><svg version="1.1" width="60.8753743314979px" height="72.47068372797375px" viewBox="0 0 60.8753743314979 72.47068372797375"><g id="original-59209"><svg xmlns="http://www.w3.org/2000/svg" viewBox="0 0 54 64" xmlns:xlink="http://www.w3.org/1999/xlink" version="1.1" preserveAspectRatio="xMidYMid meet">
  <path fill-rule="evenodd" d="M48.456.13l1.414 1.414L1.544 49.87.13 48.456z" fill="rgba(164, 101, 66, 0.25)" stroke="none"/>
  <path fill-rule="evenodd" d="M40.008 63.08L40 64H6l-.008-.92L20 58v-4.145A30.983 30.983 0 0 1 1.08 44.92l3.536-3.535c10.153 10.152 26.615 10.152 36.768-.001 10.154-10.154 10.154-26.615.001-36.77l3.537-3.536A31 31 0 0 1 26 53.856V58l14.008 5.08z" fill="rgba(68, 131, 160, 0.25)" stroke="none"/>
  <circle cx="23" cy="23" r="22" fill-rule="evenodd" fill="rgba(128, 206, 251, 0.25)" stroke="none"/>
  <path fill-rule="evenodd" d="M35.93 40.801C32.623 41.041 25.738 42.95 25 44c-1.107 1.576-4.477-3.5-6-2-.64.63-1.434 1.401-1.998 2.173C18.91 44.712 20.921 45 23 45a21.9 21.9 0 0 0 12.93-4.199zM8.492 6.461C8.638 8.806 16.106 6.45 18 8c2.188 1.791 3.463.354 4-2 .537-2.354-.875-3.658 2-4 2.121-.252 6.198 2.154 8.053.943A21.92 21.92 0 0 0 23 1 21.916 21.916 0 0 0 8.492 6.461z" fill="rgba(255, 255, 255, 0.25)" stroke="none"/>
  <path fill-rule="evenodd" d="M35.405 4.829C32.35 6.755 28.084 11.013 28 14c-.1 3.563 4.576 3.115 7 2 2.424-1.115 3.79 1.163 4 3 .21 1.837-2.39.593-6 2s-8.331 2.666-9 7c-.669 4.334.015 7.392 3 9 2.985 1.608 7.212-2.053 6-6-1.2-3.924 5.79-5.871 6-4 .21 1.871-1 6-1 6s-4.654 4.722 1.586 4.454A21.915 21.915 0 0 0 45 23c0-7.548-3.802-14.209-9.595-18.171zM4.832 10.59A15.276 15.276 0 0 1 16 10c4.01 1.115 4.911 1.973 3 5-1.911 3.027-3.955.7-6 6s-1.9 7.1-1 8c.9.9-1.8 1.635-4 2s-.955 4.175 1 3c1.955-1.175 3.266-.666 3 2s.814 3.395 3 6c.615.733.345 1.163-.431 1.326C6.602 40.018 1 32.163 1 23c0-4.604 1.414-8.877 3.832-12.41z" fill="rgba(92, 169, 14, 0.25)" stroke="none"/>
</svg>
</g></svg></g></g>
<!-- /image 59209 -->

<!-- image 22303 -->
<g id="transformed-22303" data-image="22303" transform="translate(152.88591830055083, 28.758459722810677) rotate(133, 31.114081699449173, 33.24154027718932)"><g><svg version="1.1" width="62.228163398898346px" height="66.48308055437865px" viewBox="0 0 62.228163398898346 66.48308055437865"><g id="original-22303"><svg xmlns="http://www.w3.org/2000/svg" viewBox="0 0 60 64" xmlns:xlink="http://www.w3.org/1999/xlink" version="1.1" preserveAspectRatio="xMidYMid meet">
  <g transform="translate(0 -1)">
    <path d="M17.584 3.1L38 35.794l-4 1.933-1-1.933c-4.136.666-4.506.044-6-2.9-4.337-8.545-14-29-14-29s-1.094-2.869 2.5-2.9c1.305-.005 1.983 1.893 2.084 2.106z" fill="rgba(176, 176, 176, 0.25)" stroke="none" fill-rule="evenodd"/>
    <path d="M33 37.727l6-2.9s.8 1.742 2 3.866c1.149 2.032 4.182 4.622 10 5.8s9 4.76 9 9.665c0 4.905-3.12 7.679-7 9.665-3.88 1.986-6.55 1.739-9-2.9S33 37.727 33 37.727zm18 10.631c3.59 0 6.114 3.554 6 5.8-.18 3.553-2.876 6.717-7 7.732-2.792.687-5.012-4.119-6-7.732-1.066-3.9 3.41-5.8 7-5.8z" fill="rgba(206, 73, 42, 0.25)" stroke="none" fill-rule="evenodd"/>
    <path d="M42.416 3.1L22 35.794l4 1.933 1-1.933c4.136.666 4.506.044 6-2.9 4.337-8.545 14-29 14-29s1.094-2.869-2.5-2.9C43.2.989 42.517 2.887 42.416 3.1z" fill="rgba(214, 214, 214, 0.25)" stroke="none" fill-rule="evenodd"/>
    <path d="M27 37.727l-6-2.9s-.8 1.742-2 3.866c-1.149 2.032-4.182 4.622-10 5.8s-9 4.76-9 9.665c0 4.905 3.12 7.679 7 9.665 3.88 1.986 6.55 1.739 9-2.9s11-23.196 11-23.196zM9 48.358c-3.59 0-6.114 3.554-6 5.8.18 3.553 2.876 6.717 7 7.732 2.792.687 5.012-4.119 6-7.732 1.066-3.9-3.41-5.8-7-5.8z" fill="rgba(206, 73, 42, 0.25)" stroke="none" fill-rule="evenodd"/>
    <circle cx="30" cy="30" r="3" fill="rgba(136, 136, 136, 0.25)" stroke="none" fill-rule="evenodd"/>
  </g>
</svg>
</g></svg></g></g>
<!-- /image 22303 -->

<!-- image 12052 -->
<g id="transformed-12052" data-image="12052" transform="translate(38.952036223640036, 145.11447291497518) rotate(27, 28.04796377635996, 34.88552708502482)"><g><svg version="1.1" width="56.09592755271992px" height="69.77105417004964px" viewBox="0 0 56.09592755271992 69.77105417004964"><g id="original-12052"><svg xmlns="http://www.w3.org/2000/svg" viewBox="0 0 54 67" xmlns:xlink="http://www.w3.org/1999/xlink" version="1.1" preserveAspectRatio="xMidYMid meet">
  <path fill-rule="evenodd" d="M15.95 56.05a3 3 0 0 1 0 4.243l-5.657 5.657a3 3 0 0 1-4.243-4.243l5.657-5.657a3 3 0 0 1 4.243 0zm22.1 0a3 3 0 0 0 0 4.243l5.657 5.657a3 3 0 0 0 4.243-4.243l-5.657-5.657a3 3 0 0 0-4.243 0z" fill="rgba(132, 159, 160, 0.25)" stroke="none"/>
  <path fill-rule="evenodd" d="M6.75 1.871c6.218-3.59 14.168-1.46 17.758 4.758l-22.516 13C-1.598 13.411.532 5.461 6.75 1.871z" fill="rgba(103, 186, 190, 0.25)" stroke="none"/>
  <path fill-rule="evenodd" d="M9.23.764c5.687-1.855 12.084.426 15.229 5.78L6.992 16.63C3.942 11.346 5.022 4.811 9.23.764z" fill="rgba(106, 186, 189, 0.25)" stroke="none"/>
  <path fill-rule="evenodd" d="M47.25 1.871c-6.218-3.59-14.168-1.46-17.758 4.758l22.516 13c3.59-6.218 1.46-14.168-4.758-17.758z" fill="rgba(103, 186, 190, 0.25)" stroke="none"/>
  <path fill-rule="evenodd" d="M44.77.764c-5.687-1.855-12.084.426-15.229 5.78L47.008 16.63c3.05-5.283 1.97-11.818-2.238-15.865z" fill="rgba(255, 255, 255, 0.2)" stroke="none"/>
  <circle cx="27" cy="38" r="27" fill-rule="evenodd" fill="rgba(106, 186, 189, 0.25)" stroke="none"/>
  <circle cx="27" cy="38" r="21" fill-rule="evenodd" fill="rgba(255, 255, 255, 1)" stroke="none"/>
  <path fill-rule="evenodd" d="M22.646 34.354l.708-.708 16 16-.708.708z" fill="rgba(255, 114, 95, 0.25)" stroke="none"/>
  <circle cx="27" cy="38" r="3" fill-rule="evenodd" fill="rgba(128, 128, 128, 0.25)" stroke="none"/>
  <path fill-rule="evenodd" d="M28 38a1 1 0 0 1-1 1H16a1 1 0 0 1 0-2h11a1 1 0 0 1 1 1z" fill="rgba(128, 128, 128, 0.25)" stroke="none"/>
  <path fill-rule="evenodd" d="M27 22a1 1 0 0 1 1 1v15a1 1 0 0 1-2 0V23a1 1 0 0 1 1-1z" fill="rgba(128, 128, 128, 0.25)" stroke="none"/>
</svg>
</g></svg></g></g>
<!-- /image 12052 -->

<!-- image 45722 -->
<g id="transformed-45722" data-image="45722" transform="translate(214, 93) rotate(0, 33.99999999999999, 34)"><g><svg version="1.1" width="67.99999999999999px" height="68px" viewBox="0 0 67.99999999999999 68"><g id="original-45722"><svg xmlns="http://www.w3.org/2000/svg" viewBox="0 0 64 64" xmlns:xlink="http://www.w3.org/1999/xlink" version="1.1" preserveAspectRatio="xMidYMid meet">
  <circle cx="32" cy="32" r="32" fill-rule="evenodd" fill="rgba(210, 162, 50, 0.25)" stroke="none"/>
  <circle cx="32" cy="32" r="26" fill-rule="evenodd" fill="rgba(242, 236, 223, 0.25)" stroke="none"/>
  <path fill-rule="evenodd" d="M33 29.586V9h-2v20.586l-8.556-8.556-1.415 1.414L29.585 31H9v2h20.586l-8.557 8.557 1.415 1.414L31 34.415V55h2V34.415l8.556 8.556 1.415-1.414L34.414 33H55v-2H34.415l8.556-8.556-1.415-1.414L33 29.586z" fill="rgba(219, 205, 173, 0.25)" stroke="none"/>
  <path fill-rule="evenodd" d="M47.41 16.8L34.682 35.182l-5.657-5.657z" fill="rgba(128, 128, 128, 0.25)" stroke="none"/>
  <path fill-rule="evenodd" d="M30.439 30.939l-1.414-1.414 18.379-12.721-15.55 15.55-1.415-1.415z" fill="rgba(255, 255, 255, 0.25)" stroke="none"/>
  <path fill-rule="evenodd" d="M16.3 47.91l18.385-12.728-5.657-5.657z" fill="rgba(231, 59, 59, 0.25)" stroke="none"/>
  <path fill-rule="evenodd" d="M29.027 29.527L16.307 47.9l15.547-15.546-2.827-2.827z" fill="rgba(0, 0, 0, 0.25)" stroke="none"/>
  <circle cx="32" cy="32" r="3" fill-rule="evenodd" fill="rgba(90, 90, 90, 0.25)" stroke="none"/>
</svg>
</g></svg></g></g>
<!-- /image 45722 -->

<!-- image 06772 -->
<g id="transformed-06772" data-image="06772" transform="translate(92.33294657625238, 203.9861137892618) rotate(1, 28.667053423747618, 36.013886210738214)"><g><svg version="1.1" width="57.334106847495235px" height="72.02777242147643px" viewBox="0 0 57.334106847495235 72.02777242147643"><g id="original-06772"><svg xmlns="http://www.w3.org/2000/svg" viewBox="0 0 55 69" xmlns:xlink="http://www.w3.org/1999/xlink" version="1.1" preserveAspectRatio="xMidYMid meet">
  <path fill-rule="evenodd" d="M5 69V5h50v64z" fill="rgba(144, 144, 143, 0.25)" stroke="none"/>
  <path fill-rule="evenodd" d="M0 64V0h36l14 14v50z" fill="rgba(255, 255, 255, 0.25)" stroke="none"/>
  <path fill-rule="evenodd" d="M36 0l14 14H36z" fill="rgba(210, 210, 210, 0.25)" stroke="none"/>
  <path fill-rule="evenodd" d="M10.5 49h29a.5.5 0 1 1 0 1h-29a.5.5 0 1 1 0-1z" fill="rgba(144, 144, 143, 0.25)" stroke="none"/>
  <path fill-rule="evenodd" d="M10.5 39h29a.5.5 0 1 1 0 1h-29a.5.5 0 1 1 0-1z" fill="rgba(144, 144, 143, 0.25)" stroke="none"/>
  <path fill-rule="evenodd" d="M10.5 29h29a.5.5 0 1 1 0 1h-29a.5.5 0 1 1 0-1z" fill="rgba(144, 144, 143, 0.25)" stroke="none"/>
  <path fill-rule="evenodd" d="M10.5 19h29a.5.5 0 1 1 0 1h-29a.5.5 0 1 1 0-1z" fill="rgba(144, 144, 143, 0.25)" stroke="none"/>
</svg>
</g></svg></g></g>
<!-- /image 06772 -->
</defs><rect x="0" y="0" width="250" height="250" fill="rgba(255, 255, 255, 1)"></rect><use xlink:href="#transformed-38903" transform="translate(-250, -250)"></use><use xlink:href="#transformed-38903" transform="translate(0, -250)"></use><use xlink:href="#transformed-38903" transform="translate(250, -250)"></use><use xlink:href="#transformed-38903" transform="translate(-250, 0)"></use><use xlink:href="#transformed-38903" transform="translate(0, 0)"></use><use xlink:href="#transformed-38903" transform="translate(250, 0)"></use><use xlink:href="#transformed-38903" transform="translate(-250, 250)"></use><use xlink:href="#transformed-38903" transform="translate(0, 250)"></use><use xlink:href="#transformed-38903" transform="translate(250, 250)"></use><use xlink:href="#transformed-12014" transform="translate(-250, -250)"></use><use xlink:href="#transformed-12014" transform="translate(0, -250)"></use><use xlink:href="#transformed-12014" transform="translate(250, -250)"></use><use xlink:href="#transformed-12014" transform="translate(-250, 0)"></use><use xlink:href="#transformed-12014" transform="translate(0, 0)"></use><use xlink:href="#transformed-12014" transform="translate(250, 0)"></use><use xlink:href="#transformed-12014" transform="translate(-250, 250)"></use><use xlink:href="#transformed-12014" transform="translate(0, 250)"></use><use xlink:href="#transformed-12014" transform="translate(250, 250)"></use><use xlink:href="#transformed-58010" transform="translate(-250, -250)"></use><use xlink:href="#transformed-58010" transform="translate(0, -250)"></use><use xlink:href="#transformed-58010" transform="translate(250, -250)"></use><use xlink:href="#transformed-58010" transform="translate(-250, 0)"></use><use xlink:href="#transformed-58010" transform="translate(0, 0)"></use><use xlink:href="#transformed-58010" transform="translate(250, 0)"></use><use xlink:href="#transformed-58010" transform="translate(-250, 250)"></use><use xlink:href="#transformed-58010" transform="translate(0, 250)"></use><use xlink:href="#transformed-58010" transform="translate(250, 250)"></use><use xlink:href="#transformed-59209" transform="translate(-250, -250)"></use><use xlink:href="#transformed-59209" transform="translate(0, -250)"></use><use xlink:href="#transformed-59209" transform="translate(250, -250)"></use><use xlink:href="#transformed-59209" transform="translate(-250, 0)"></use><use xlink:href="#transformed-59209" transform="translate(0, 0)"></use><use xlink:href="#transformed-59209" transform="translate(250, 0)"></use><use xlink:href="#transformed-59209" transform="translate(-250, 250)"></use><use xlink:href="#transformed-59209" transform="translate(0, 250)"></use><use xlink:href="#transformed-59209" transform="translate(250, 250)"></use><use xlink:href="#transformed-22303" transform="translate(-250, -250)"></use><use xlink:href="#transformed-22303" transform="translate(0, -250)"></use><use xlink:href="#transformed-22303" transform="translate(250, -250)"></use><use xlink:href="#transformed-22303" transform="translate(-250, 0)"></use><use xlink:href="#transformed-22303" transform="translate(0, 0)"></use><use xlink:href="#transformed-22303" transform="translate(250, 0)"></use><use xlink:href="#transformed-22303" transform="translate(-250, 250)"></use><use xlink:href="#transformed-22303" transform="translate(0, 250)"></use><use xlink:href="#transformed-22303" transform="translate(250, 250)"></use><use xlink:href="#transformed-12052" transform="translate(-250, -250)"></use><use xlink:href="#transformed-12052" transform="translate(0, -250)"></use><use xlink:href="#transformed-12052" transform="translate(250, -250)"></use><use xlink:href="#transformed-12052" transform="translate(-250, 0)"></use><use xlink:href="#transformed-12052" transform="translate(0, 0)"></use><use xlink:href="#transformed-12052" transform="translate(250, 0)"></use><use xlink:href="#transformed-12052" transform="translate(-250, 250)"></use><use xlink:href="#transformed-12052" transform="translate(0, 250)"></use><use xlink:href="#transformed-12052" transform="translate(250, 250)"></use><use xlink:href="#transformed-45722" transform="translate(-250, -250)"></use><use xlink:href="#transformed-45722" transform="translate(0, -250)"></use><use xlink:href="#transformed-45722" transform="translate(250, -250)"></use><use xlink:href="#transformed-45722" transform="translate(-250, 0)"></use><use xlink:href="#transformed-45722" transform="translate(0, 0)"></use><use xlink:href="#transformed-45722" transform="translate(250, 0)"></use><use xlink:href="#transformed-45722" transform="translate(-250, 250)"></use><use xlink:href="#transformed-45722" transform="translate(0, 250)"></use><use xlink:href="#transformed-45722" transform="translate(250, 250)"></use><use xlink:href="#transformed-06772" transform="translate(-250, -250)"></use><use xlink:href="#transformed-06772" transform="translate(0, -250)"></use><use xlink:href="#transformed-06772" transform="translate(250, -250)"></use><use xlink:href="#transformed-06772" transform="translate(-250, 0)"></use><use xlink:href="#transformed-06772" transform="translate(0, 0)"></use><use xlink:href="#transformed-06772" transform="translate(250, 0)"></use><use xlink:href="#transformed-06772" transform="translate(-250, 250)"></use><use xlink:href="#transformed-06772" transform="translate(0, 250)"></use><use xlink:href="#transformed-06772" transform="translate(250, 250)"></use></svg>