<?xml version="1.0" encoding="UTF-8" standalone="no"?>
<!DOCTYPE svg PUBLIC "-//W3C//DTD SVG 1.1//EN" "http://www.w3.org/Graphics/SVG/1.1/DTD/svg11.dtd">
<svg version="1.1" xmlns="http://www.w3.org/2000/svg" xmlns:xlink="http://www.w3.org/1999/xlink" preserveAspectRatio="xMidYMid meet" viewBox="134.62224574932677 77.41996003537018 362.41482649401917 436.74670663129655" width="358.41" height="432.75"><defs><path d="M277.91 393.32L277.91 470L250.26 470L250.26 393.32L277.91 393.32Z" id="cp1cdAPMm"></path><path d="M388.52 393.32L388.52 470L360.87 470L360.87 393.32L388.52 393.32Z" id="a1EdSEOl8"></path><path d="M196.49 249.51C187.54 244.39 179.77 234 176.01 221.51C173.51 213.19 170.54 199.68 167.1 181L145.48 185.38C148.91 219.35 157.87 243.82 172.33 258.79C186.8 273.76 207.98 279.35 235.87 275.56L239.85 252.58C216.91 253.94 202.46 252.92 196.49 249.51Z" id="ddFVlSfb0"></path><path d="M454.8 237.5C461.3 229.5 464.8 217 463.8 204C463.13 195.33 461.03 181.67 457.5 163L479.25 159.29C488.3 192.21 488.77 218.26 480.68 237.44C472.59 256.62 454.85 269.47 427.47 276L415.47 256C437.36 249 450.47 242.83 454.8 237.5Z" id="b2PqZtqYzg"></path><path d="M326.64 84.32C323.61 78.89 315.77 79.02 312.92 84.54C281.03 146.29 191.44 319.8 159.41 381.84C156.7 387.07 160.51 393.32 166.4 393.32C232.95 393.32 418.82 393.32 485.16 393.32C491.42 393.32 495.37 386.59 492.32 381.12C457.77 319.22 361.14 146.12 326.64 84.32Z" id="a12m98eego"></path><path d="M316.41 351C333.46 351 346.01 337.5 354.06 310.5L280.17 310.5C287.27 337.5 299.35 351 316.41 351Z" id="gfkw3yDmJ"></path><path d="M295.33 244.17C295.33 252.54 288.54 259.33 280.17 259.33C271.8 259.33 265 252.54 265 244.17C265 235.8 271.8 229 280.17 229C288.54 229 295.33 235.8 295.33 244.17Z" id="c3ytyqMkHp"></path><path d="M369.33 242.83C369.33 251.2 362.54 258 354.17 258C345.8 258 339 251.2 339 242.83C339 234.46 345.8 227.67 354.17 227.67C362.54 227.67 369.33 234.46 369.33 242.83Z" id="b1UUtyEDm8"></path><path d="M389 477.83L388 488.19L398.67 487.54C407 487.54 412.21 487.54 414.29 487.54C419.65 487.54 424 491.89 424 497.25C424 497.25 424 497.25 424 497.25L424 506.95L361 506.53L361 495.78L361 477.83L389 477.83Z" id="a3QzZD34nF"></path><path d="M396 473.53C396 476.46 393.63 478.83 390.7 478.83C383.76 478.83 368.24 478.83 361.3 478.83C358.37 478.83 356 476.46 356 473.53C356 472.59 356 474.79 356 473.78C356 471.05 358.22 468.83 360.95 468.83C367.96 468.83 383.76 468.83 390.7 468.83C393.63 468.83 396 471.21 396 474.14C396 475.08 396 472.59 396 473.53Z" id="d16B9m2Uq"></path><path d="M250 477.83L251 488.19L240.33 487.54C232 487.54 226.79 487.54 224.71 487.54C219.35 487.54 215 491.89 215 497.25C215 497.25 215 497.25 215 497.25L215 506.95L278 506.53L278 495.78L278 477.83L250 477.83Z" id="dmFKyjLd7"></path><path d="M424 506.72L424 511.17L361 511.17L361 506.92L424 506.72Z" id="b13YSADZOP"></path><path d="M215 506.72L215 511.17L278 511.17L278 506.92L215 506.72Z" id="b2c70l64mR"></path><path d="M285 473.53C285 476.46 282.63 478.83 279.7 478.83C272.76 478.83 257.24 478.83 250.3 478.83C247.37 478.83 245 476.46 245 473.53C245 472.59 245 474.79 245 473.78C245 471.05 247.22 468.83 249.95 468.83C256.96 468.83 272.76 468.83 279.7 468.83C282.63 468.83 285 471.21 285 474.14C285 475.08 285 472.59 285 473.53Z" id="bp6c7Rfc6"></path><path d="M143.37 182.83C141.69 179.76 140.45 177.52 139.65 176.09C138.45 173.96 134.36 158.38 136.01 150.54C137.65 142.7 141.07 136.18 148.25 133.04C155.42 129.89 158.47 133.54 160.92 138.91C163.36 144.27 160.95 158.2 161.8 162.33C162.66 166.45 165.47 161.43 165.47 156.45C165.48 151.47 167.41 150.13 170.69 149.98C173.98 149.82 173.84 160.27 173.84 165.47C173.85 168.93 172.29 173.35 169.16 178.72L143.37 182.83Z" id="b77KQmPiZ"></path><path d="M167.98 177.62C155.29 179.6 147.35 180.83 144.18 181.33C143.04 181.5 142.28 182.59 142.5 183.73C142.66 184.51 142.72 184.83 142.88 185.62C143.1 186.73 144.16 187.46 145.28 187.27C150.35 186.39 163.62 184.09 168.71 183.21C169.79 183.02 170.53 182.02 170.39 180.93C170.29 180.21 170.26 179.98 170.17 179.26C170.03 178.19 169.04 177.45 167.98 177.62C167.98 177.62 167.98 177.62 167.98 177.62Z" id="aBZbpZugR"></path><path d="" id="c3Noh75cLg"></path><path d="M480.3 156.14C480.76 152.68 481.1 150.14 481.34 148.52C481.68 146.1 479.88 130.1 475.52 123.38C471.15 116.66 465.61 111.81 457.79 111.47C449.96 111.12 448.43 115.62 448.09 121.51C447.74 127.4 455.01 139.52 455.71 143.68C456.4 147.83 451.97 144.16 450.17 139.52C448.36 134.88 446.08 134.32 442.96 135.36C439.85 136.4 443.74 146.1 445.61 150.95C446.86 154.18 449.91 157.74 454.76 161.62L480.3 156.14Z" id="g3VZQgP9Ax"></path><path d="M455.46 160.16C468.01 157.43 475.86 155.72 479 155.04C480.12 154.79 481.23 155.54 481.43 156.67C481.57 157.45 481.62 157.78 481.76 158.58C481.96 159.69 481.23 160.76 480.12 160.98C475.07 161.99 461.86 164.63 456.8 165.64C455.72 165.86 454.67 165.19 454.41 164.12C454.24 163.41 454.19 163.19 454.01 162.48C453.76 161.44 454.42 160.39 455.46 160.16C455.46 160.16 455.46 160.16 455.46 160.16Z" id="bYy1MHwJ5"></path><path d="M357.68 139.33C358.12 143.11 356.79 144.78 353.68 144.33C349.01 143.67 348.68 140.67 343.34 138.33C338.01 136 333.68 145.67 328.01 143C322.34 140.33 321.01 138 316.34 139.33C311.68 140.67 308.01 161.33 303.68 149.33C299.34 137.33 295.34 145.67 288.68 149.33C284.23 151.78 280.16 152.48 276.47 151.44C295.54 114.76 307.46 91.84 312.23 82.67C315.13 77.09 323.07 76.98 326.12 82.48C330.33 90.06 340.85 109.01 357.68 139.33Z" id="aTHIU4cD3"></path></defs><g><g><use xlink:href="#cp1cdAPMm" opacity="1" fill="#49dcb1" fill-opacity="1"></use><g><use xlink:href="#cp1cdAPMm" opacity="1" fill-opacity="0" stroke="#000000" stroke-width="1" stroke-opacity="1"></use></g></g><g><use xlink:href="#a1EdSEOl8" opacity="1" fill="#49dcb1" fill-opacity="1"></use><g><use xlink:href="#a1EdSEOl8" opacity="1" fill-opacity="0" stroke="#000000" stroke-width="1" stroke-opacity="1"></use></g></g><g><use xlink:href="#ddFVlSfb0" opacity="1" fill="#f9ebe0" fill-opacity="1"></use><g><use xlink:href="#ddFVlSfb0" opacity="1" fill-opacity="0" stroke="#000000" stroke-width="1" stroke-opacity="1"></use></g></g><g><use xlink:href="#b2PqZtqYzg" opacity="1" fill="#f9ebe0" fill-opacity="1"></use><g><use xlink:href="#b2PqZtqYzg" opacity="1" fill-opacity="0" stroke="#000000" stroke-width="1" stroke-opacity="1"></use></g></g><g><use xlink:href="#a12m98eego" opacity="1" fill="#456990" fill-opacity="1"></use><g><use xlink:href="#a12m98eego" opacity="1" fill-opacity="0" stroke="#000000" stroke-width="1" stroke-opacity="1"></use></g></g><g><use xlink:href="#gfkw3yDmJ" opacity="1" fill="#cc444b" fill-opacity="1"></use><g><use xlink:href="#gfkw3yDmJ" opacity="1" fill-opacity="0" stroke="#000000" stroke-width="1" stroke-opacity="1"></use></g></g><g><use xlink:href="#c3ytyqMkHp" opacity="1" fill="#fbfbfb" fill-opacity="1"></use><g><use xlink:href="#c3ytyqMkHp" opacity="1" fill-opacity="0" stroke="#000000" stroke-width="4" stroke-opacity="1"></use></g></g><g><use xlink:href="#b1UUtyEDm8" opacity="1" fill="#fbfbfb" fill-opacity="1"></use><g><use xlink:href="#b1UUtyEDm8" opacity="1" fill-opacity="0" stroke="#000000" stroke-width="4" stroke-opacity="1"></use></g></g><g><use xlink:href="#a3QzZD34nF" opacity="1" fill="#ad2e24" fill-opacity="1"></use><g><use xlink:href="#a3QzZD34nF" opacity="1" fill-opacity="0" stroke="#000000" stroke-width="1" stroke-opacity="1"></use></g></g><g><use xlink:href="#d16B9m2Uq" opacity="1" fill="#ffffff" fill-opacity="1"></use><g><use xlink:href="#d16B9m2Uq" opacity="1" fill-opacity="0" stroke="#000000" stroke-width="1" stroke-opacity="1"></use></g></g><g><use xlink:href="#dmFKyjLd7" opacity="1" fill="#ad2e24" fill-opacity="1"></use><g><use xlink:href="#dmFKyjLd7" opacity="1" fill-opacity="0" stroke="#000000" stroke-width="1" stroke-opacity="1"></use></g></g><g><use xlink:href="#b13YSADZOP" opacity="1" fill="#ea8c55" fill-opacity="1"></use><g><use xlink:href="#b13YSADZOP" opacity="1" fill-opacity="0" stroke="#000000" stroke-width="1" stroke-opacity="1"></use></g></g><g><use xlink:href="#b2c70l64mR" opacity="1" fill="#ea8c55" fill-opacity="1"></use><g><use xlink:href="#b2c70l64mR" opacity="1" fill-opacity="0" stroke="#000000" stroke-width="1" stroke-opacity="1"></use></g></g><g><use xlink:href="#bp6c7Rfc6" opacity="1" fill="#ffffff" fill-opacity="1"></use><g><use xlink:href="#bp6c7Rfc6" opacity="1" fill-opacity="0" stroke="#000000" stroke-width="1" stroke-opacity="1"></use></g></g><g><use xlink:href="#b77KQmPiZ" opacity="1" fill="#fbfbfb" fill-opacity="1"></use><g><use xlink:href="#b77KQmPiZ" opacity="1" fill-opacity="0" stroke="#4d230c" stroke-width="1" stroke-opacity="1"></use></g></g><g><use xlink:href="#aBZbpZugR" opacity="1" fill="#030027" fill-opacity="1"></use><g><use xlink:href="#aBZbpZugR" opacity="1" fill-opacity="0" stroke="#4d230c" stroke-width="1" stroke-opacity="1"></use></g></g><g><g><use xlink:href="#c3Noh75cLg" opacity="1" fill-opacity="0" stroke="#4d230c" stroke-width="1" stroke-opacity="1"></use></g></g><g><use xlink:href="#g3VZQgP9Ax" opacity="1" fill="#fbfbfb" fill-opacity="1"></use><g><use xlink:href="#g3VZQgP9Ax" opacity="1" fill-opacity="0" stroke="#4d230c" stroke-width="1" stroke-opacity="1"></use></g></g><g><use xlink:href="#bYy1MHwJ5" opacity="1" fill="#030027" fill-opacity="1"></use><g><use xlink:href="#bYy1MHwJ5" opacity="1" fill-opacity="0" stroke="#4d230c" stroke-width="1" stroke-opacity="1"></use></g></g><g><use xlink:href="#aTHIU4cD3" opacity="1" fill="#cae5ff" fill-opacity="1"></use><g><use xlink:href="#aTHIU4cD3" opacity="1" fill-opacity="0" stroke="#000000" stroke-width="1" stroke-opacity="1"></use></g></g></g></svg>