<?xml version="1.0" encoding="UTF-8" standalone="no"?>
<!-- Created with Inkscape (http://www.inkscape.org/) -->

<svg
   xmlns:dc="http://purl.org/dc/elements/1.1/"
   xmlns:cc="http://creativecommons.org/ns#"
   xmlns:rdf="http://www.w3.org/1999/02/22-rdf-syntax-ns#"
   xmlns:svg="http://www.w3.org/2000/svg"
   xmlns="http://www.w3.org/2000/svg"
   xmlns:sodipodi="http://sodipodi.sourceforge.net/DTD/sodipodi-0.dtd"
   xmlns:inkscape="http://www.inkscape.org/namespaces/inkscape"
   width="300"
   height="450"
   viewBox="0 0 79.374998 119.0625"
   version="1.1"
   id="svg7976"
   inkscape:version="0.92.1 r15371">
  <defs
     id="defs7970" />
  <sodipodi:namedview
     id="base"
     pagecolor="#ffffff"
     bordercolor="#666666"
     borderopacity="1.0"
     inkscape:pageopacity="0.0"
     inkscape:pageshadow="2"
     inkscape:zoom="0.98994949"
     inkscape:cx="117.71995"
     inkscape:cy="200.85568"
     inkscape:document-units="mm"
     inkscape:current-layer="g8813"
     showgrid="false"
     units="px"
     inkscape:window-width="1360"
     inkscape:window-height="748"
     inkscape:window-x="0"
     inkscape:window-y="0"
     inkscape:window-maximized="1" />
  <metadata
     id="metadata7973">
    <rdf:RDF>
      <cc:Work
         rdf:about="">
        <dc:format>image/svg+xml</dc:format>
        <dc:type
           rdf:resource="http://purl.org/dc/dcmitype/StillImage" />
        <dc:title></dc:title>
      </cc:Work>
    </rdf:RDF>
  </metadata>
  <g
     inkscape:label="Camada 1"
     inkscape:groupmode="layer"
     id="layer1"
     transform="translate(0,-177.93748)">
    <g
       id="g8813"
       transform="matrix(1.6498676,0,0,1.6498676,-21.426348,163.7973)">
      <path
         d="m 41.611548,44.687486 c 0,0.99413 0.8061,1.800225 1.80023,1.800225 0.99412,0 1.80022,-0.806095 1.80022,-1.800225 0,-0.994478 -0.8061,-1.800225 -1.80022,-1.800225 -0.99413,0 -1.80023,0.805747 -1.80023,1.800225"
         style="fill:#dddedb;fill-opacity:1;fill-rule:nonzero;stroke:none;stroke-width:0.03527778"
         id="path18"
         inkscape:connector-curvature="0" />
      <path
         d="m 43.710578,44.395741 c -0.23036,0 -0.45685,-0.01659 -0.65546,-0.0381 -7.2e-4,-7.94e-4 -10e-4,-0.0011 -0.002,-0.0019 -0.26459,-0.02893 -0.48119,-0.06668 -0.58738,-0.08643 -0.17462,-0.15875 -0.35877,-0.307975 -0.55068,-0.445558 0.24694,0.03634 0.58526,0.07408 0.93204,0.07408 0.33478,0 0.67698,-0.03528 0.95179,-0.140758 0.29104,-0.111829 0.55457,-0.273402 0.80186,-0.412043 0.21661,0.192264 0.38841,0.433916 0.49389,0.708376 -0.13687,0.07408 -0.2794,0.14464 -0.42897,0.202142 -0.2092,0.08043 -0.45897,0.119946 -0.71509,0.134057 l -3.4e-4,-2.65e-4 h -3.4e-4 c -0.0797,0.0042 -0.15981,0.0063 -0.23954,0.0063"
         style="fill:#c3c5c2;fill-opacity:1;fill-rule:nonzero;stroke:none;stroke-width:0.03527778"
         id="path20"
         inkscape:connector-curvature="0" />
      <path
         d="m 49.211438,69.002343 c 0.2466,0.05115 0.4879,-0.106892 0.53905,-0.353483 l 0.43286,-2.082097 c 0.0512,-0.246591 -0.1069,-0.487891 -0.35349,-0.539043 -0.24624,-0.05115 -0.48754,0.106891 -0.53869,0.353483 l -0.43321,2.082094 c -0.0512,0.246591 0.10724,0.487891 0.35348,0.539046"
         style="fill:#333436;fill-opacity:1;fill-rule:nonzero;stroke:none;stroke-width:0.03527778"
         id="path22"
         inkscape:connector-curvature="0" />
      <path
         d="m 52.118328,67.688245 c 0.24271,-0.06738 0.38418,-0.31891 0.3168,-0.561269 l -0.90347,-3.243085 c -0.0677,-0.242713 -0.31891,-0.38453 -0.56162,-0.316796 -0.24236,0.06738 -0.38418,0.318913 -0.31644,0.561271 l 0.90346,3.243085 c 0.0677,0.242359 0.31891,0.384175 0.56127,0.316794"
         style="fill:#333436;fill-opacity:1;fill-rule:nonzero;stroke:none;stroke-width:0.03527778"
         id="path24"
         inkscape:connector-curvature="0" />
      <path
         d="m 50.816228,69.105705 v 0 c 0.25118,-0.01236 0.44485,-0.226483 0.43251,-0.47766 l -0.14464,-2.90054 c -0.0127,-0.251529 -0.22649,-0.445204 -0.47802,-0.432504 -0.25118,0.01236 -0.44485,0.226484 -0.4325,0.47766 l 0.14463,2.90054 c 0.0124,0.251529 0.22649,0.445204 0.47802,0.432504"
         style="fill:#333436;fill-opacity:1;fill-rule:nonzero;stroke:none;stroke-width:0.03527778"
         id="path26"
         inkscape:connector-curvature="0" />
      <path
         d="m 42.395778,44.255686 c 0,0 1.44709,0.31609 2.27012,0 0.82303,-0.316087 1.43263,-1.036108 2.04188,-0.482245 0.60925,0.55386 3.60045,7.533569 4.37621,11.300529 0.7754,3.766608 -3.04694,2.6035 -3.04694,2.6035 l -4.48663,-10.026296 -1.15464,-3.395488"
         style="fill:#d3d5d2;fill-opacity:1;fill-rule:nonzero;stroke:none;stroke-width:0.03527778"
         id="path28"
         inkscape:connector-curvature="0" />
      <path
         d="m 43.055118,44.357641 c -0.2667,-0.02893 -0.4826,-0.06703 -0.58843,-0.08749 -3.5e-4,-2.64e-4 -3.5e-4,-2.64e-4 -7.2e-4,-7.94e-4 0.10619,0.01976 0.32279,0.0575 0.58738,0.08643 3.4e-4,7.94e-4 10e-4,0.0011 0.002,0.0019"
         style="fill:#acaeac;fill-opacity:1;fill-rule:nonzero;stroke:none;stroke-width:0.03527778"
         id="path30"
         inkscape:connector-curvature="0" />
      <path
         d="m 43.711638,44.396093 c -0.23037,0 -0.45755,-0.01622 -0.65617,-0.0381 -3.4e-4,0 -3.4e-4,0 -3.4e-4,-2.65e-4 0.19861,0.02151 0.42509,0.0381 0.65546,0.0381 0.0797,0 0.15981,-0.0021 0.23953,-0.0064 h 3.5e-4 l 3.4e-4,2.65e-4 c -0.0794,0.0046 -0.15945,0.0063 -0.23918,0.0063"
         style="fill:#b8bab8;fill-opacity:1;fill-rule:nonzero;stroke:none;stroke-width:0.03527778"
         id="path32"
         inkscape:connector-curvature="0" />
      <path
         d="m 47.419328,56.297051 -2.72485,-6.08965 v 0 l 0.50412,1.127125 c 0.0205,-1.264708 -0.0889,-2.529416 -0.34996,-3.770841 -0.26529,-1.263299 -0.90805,-2.366786 -1.79317,-3.205692 0.19862,0.02188 0.4258,0.0381 0.65617,0.0381 0.0797,0 0.15981,-0.0019 0.23918,-0.0063 0.03,0.0508 3.64702,6.15809 4.72193,11.151306 -0.2981,0.09525 -0.62195,0.207434 -0.95426,0.335844 -0.1337,0.05221 -0.23072,0.201435 -0.29916,0.420158"
         style="fill:#c6c8c6;fill-opacity:1;fill-rule:nonzero;stroke:none;stroke-width:0.03527778"
         id="path34"
         inkscape:connector-curvature="0" />
      <path
         d="m 43.055468,44.357993 c -0.2667,-0.02893 -0.4826,-0.06738 -0.58878,-0.08784 v 0 c 0.10583,0.02045 0.32173,0.05856 0.58843,0.08749 0,2.65e-4 0,2.65e-4 3.4e-4,2.65e-4"
         style="fill:#a2a5a4;fill-opacity:1;fill-rule:nonzero;stroke:none;stroke-width:0.03527778"
         id="path36"
         inkscape:connector-curvature="0" />
      <path
         d="m 45.198598,51.334526 -0.50412,-1.127125 c -0.0448,-0.887235 -0.15875,-1.771298 -0.3422,-2.643716 -0.27481,-1.307394 -0.95179,-2.44475 -1.88559,-3.293534 0.10618,0.02045 0.32208,0.05891 0.58878,0.08784 0.88512,0.838906 1.52788,1.942393 1.79317,3.205692 0.26106,1.241425 0.37042,2.506133 0.34996,3.770841"
         style="fill:#afb1af;fill-opacity:1;fill-rule:nonzero;stroke:none;stroke-width:0.03527778"
         id="path38"
         inkscape:connector-curvature="0" />
      <path
         d="m 47.673688,56.86467 -0.25436,-0.567619 v 0 l 0.25436,0.567619 v 0 m 1.10807,-0.770467 c -0.0325,-0.182737 -0.0691,-0.367242 -0.10901,-0.553154 0.85655,-0.274463 1.49719,-0.411691 1.49719,-0.411691 0,0 0.28751,-0.596548 0.65581,-1.125009 0.0596,0.225777 0.11642,0.446969 0.16687,0.660046 -0.31433,0.48119 -0.54575,0.963438 -0.54575,0.963438 0,0 -0.72566,0.155575 -1.66511,0.46637"
         style="fill:#babcba;fill-opacity:1;fill-rule:nonzero;stroke:none;stroke-width:0.03527778"
         id="path40"
         inkscape:connector-curvature="0" />
      <path
         d="m 47.673688,56.86467 -0.25436,-0.567619 c 0.0684,-0.218723 0.16546,-0.367948 0.29916,-0.420158 0.33231,-0.12841 0.65616,-0.240594 0.95426,-0.335844 0.0399,0.185912 0.0765,0.370417 0.10901,0.553154 -0.24553,0.08149 -0.50588,0.173215 -0.77152,0.275873 -2.7e-4,0 -8e-4,0 -8e-4,2.65e-4 -0.005,0.0019 -0.009,0.0035 -0.0138,0.0053 -0.14852,0.0575 -0.25365,0.229307 -0.32208,0.48895"
         style="fill:#afb1af;fill-opacity:1;fill-rule:nonzero;stroke:none;stroke-width:0.03527778"
         id="path42"
         inkscape:connector-curvature="0" />
      <path
         d="m 50.446868,55.627833 c 0,0 0.99695,-2.077157 1.66194,-1.910998 0.66463,0.166158 1.12148,4.486981 0.91369,7.228768 -0.20743,2.742142 -1.03858,4.943827 -1.57868,5.317773 -0.5401,0.373944 -1.911,0.291042 -2.32657,0 -0.41522,-0.29069 -2.40947,-9.389181 -1.12148,-9.887656 1.28764,-0.498827 2.4511,-0.747887 2.4511,-0.747887"
         style="fill:#dddedb;fill-opacity:1;fill-rule:nonzero;stroke:none;stroke-width:0.03527778"
         id="path44"
         inkscape:connector-curvature="0" />
      <path
         d="m 51.274138,66.355803 v 0 c 0.0628,-0.02717 0.11994,-0.05786 0.16968,-0.09243 10e-4,-2.64e-4 0.002,-0.0011 0.003,-0.0019 -7.9e-4,7.94e-4 -0.002,0.0013 -0.003,0.0019 -0.0497,0.03457 -0.10689,0.06526 -0.16968,0.09243"
         style="fill:#303133;fill-opacity:1;fill-rule:nonzero;stroke:none;stroke-width:0.03527778"
         id="path46"
         inkscape:connector-curvature="0" />
      <path
         d="m 51.447348,66.26126 c 7.9e-4,-7.94e-4 0.001,-0.0013 0.002,-0.0019 -10e-4,7.94e-4 -0.002,0.0011 -0.002,0.0019 m 0.003,-0.0024 c 2.6e-4,-2.64e-4 7.9e-4,-7.93e-4 0.001,-0.0011 -2.7e-4,2.65e-4 -8e-4,7.94e-4 -0.001,0.0011"
         style="fill:#303133;fill-opacity:1;fill-rule:nonzero;stroke:none;stroke-width:0.03527778"
         id="path48"
         inkscape:connector-curvature="0" />
      <path
         d="m 48.009528,56.370428 c 0,-2.64e-4 2.6e-4,-2.64e-4 7.9e-4,-2.64e-4 -2.6e-4,0 -7.9e-4,0 -7.9e-4,2.64e-4"
         style="fill:#a6a8a7;fill-opacity:1;fill-rule:nonzero;stroke:none;stroke-width:0.03527778"
         id="path50"
         inkscape:connector-curvature="0" />
      <path
         d="m 50.319868,66.513847 c -0.043,0 -0.0857,-7.94e-4 -0.12841,-0.0021 -0.34043,-0.01164 -0.66851,-0.06773 -0.89429,-0.155927 -0.0709,-0.02787 -0.13159,-0.05856 -0.17992,-0.09243 -0.31644,-0.221546 -1.54869,-5.553427 -1.54905,-8.301918 0,-0.860073 0.12065,-1.46685 0.42757,-1.585738 0.005,-0.0019 0.009,-0.0035 0.0138,-0.0053 0,-2.64e-4 2.7e-4,-2.64e-4 8e-4,-2.64e-4 0.30091,-0.116065 0.59372,-0.217665 0.86747,-0.306565 0.0243,0.983546 0.20603,7.113058 0.9458,8.70444 0.33655,0.723545 0.8502,0.934153 1.33421,0.934153 0.28787,0 0.56515,-0.07444 0.78881,-0.159808 -0.17392,0.357365 -0.34502,0.607483 -0.49459,0.715433 -2.7e-4,2.65e-4 -8e-4,7.94e-4 -10e-4,0.0011 -2.7e-4,0 -8e-4,2.64e-4 -10e-4,7.93e-4 -0.001,2.65e-4 -0.002,0.0011 -0.002,0.0019 -2.7e-4,0 -2.7e-4,0 -8e-4,2.65e-4 -7.9e-4,7.94e-4 -0.002,0.0013 -0.003,0.0019 -0.0497,0.03457 -0.10689,0.06526 -0.16968,0.09243 -0.25542,0.109715 -0.60537,0.158044 -0.95427,0.158044"
         style="fill:#d0d2cf;fill-opacity:1;fill-rule:nonzero;stroke:none;stroke-width:0.03527778"
         id="path52"
         inkscape:connector-curvature="0" />
      <path
         d="m 47.351598,66.934711 v 0 c 0.24976,0.172861 0.59266,0.110774 0.76588,-0.138993 l 1.18392,-1.709208 c 0.17321,-0.249767 0.11113,-0.592667 -0.13899,-0.765882 -0.24977,-0.17286 -0.59267,-0.11077 -0.76553,0.138994 l -1.18428,1.709208 c -0.17286,0.249767 -0.11077,0.592667 0.139,0.765881"
         style="fill:#333436;fill-opacity:1;fill-rule:nonzero;stroke:none;stroke-width:0.03527778"
         id="path54"
         inkscape:connector-curvature="0" />
      <path
         d="m 51.946528,60.179724 h 1.11442 c -0.008,0.264229 -0.0198,0.522817 -0.0381,0.765879 -0.0317,0.416632 -0.079,0.818798 -0.13617,1.205796 h -0.94015 v -1.971675"
         style="fill:#50c6e4;fill-opacity:1;fill-rule:nonzero;stroke:none;stroke-width:0.03527778"
         id="path56"
         inkscape:connector-curvature="0" />
      <path
         d="m 52.835528,62.48301 c -0.0349,0.207081 -0.0734,0.407106 -0.11359,0.602191 h -0.77541 V 62.48301 h 0.889"
         style="fill:#50c6e4;fill-opacity:1;fill-rule:nonzero;stroke:none;stroke-width:0.03527778"
         id="path58"
         inkscape:connector-curvature="0" />
      <path
         d="m 37.243458,58.009786 h -6.75675 l 0.28963,2.326572 4.48698,5.291312 c 1.2266,0.702733 2.73367,0.702733 3.96063,0 l 4.48698,-5.291312 0.28928,-2.326572 h -6.75675"
         style="fill:#d3d5d2;fill-opacity:1;fill-rule:nonzero;stroke:none;stroke-width:0.03527778"
         id="path60"
         inkscape:connector-curvature="0" />
      <path
         d="m 37.349288,66.147311 c -0.0367,0 -0.073,-0.0046 -0.10971,-0.0046 -0.0367,0 -0.073,0.0046 -0.10972,0.0046 -0.004,0 -0.008,0 -0.012,-2.64e-4 l 0.006,-0.0085 c -0.23389,-0.0067 -0.46778,-0.03246 -0.69814,-0.07832 -0.30939,-0.268113 -0.71403,-0.432507 -1.16276,-0.432507 v 0 c 0,0 -1.10807,-3.77472 -1.66194,-4.339167 -0.42897,-0.437091 -1.65488,-1.387475 -2.70051,-1.387475 -0.06,0 -0.11924,0.0032 -0.1778,0.0095 l -0.0219,-0.176741 c 0.22966,-0.151694 0.48789,-0.214842 0.75812,-0.214842 1.04457,0 2.2673,0.945092 2.69593,1.381832 0.55386,0.564443 1.66193,4.339166 1.66193,4.339166 0.59867,0 1.10279,0.303387 1.4224,0.74436 0.31962,-0.440973 0.82374,-0.74436 1.4224,-0.74436 0,0 1.10773,-3.774723 1.66194,-4.339166 0.42827,-0.43674 1.651,-1.381832 2.69593,-1.381832 0.27023,0 0.52846,0.06315 0.75812,0.214842 l -0.0222,0.176741 c -0.0582,-0.0063 -0.11748,-0.0095 -0.17745,-0.0095 -1.04599,0 -2.27154,0.950384 -2.70051,1.387475 -7.2e-4,7.94e-4 -10e-4,0.0011 -0.002,0.0019 -0.5394,0.554566 -1.59985,4.133495 -1.65771,4.328935 -0.001,0.0056 -0.002,0.0085 -0.002,0.0085 v 0 0 c -0.44908,0 -0.85337,0.164394 -1.16275,0.432507 -0.23037,0.04586 -0.46426,0.07161 -0.6985,0.07832 l 0.007,0.0085 c -0.004,2.65e-4 -0.008,2.65e-4 -0.012,2.65e-4"
         style="fill:#babcba;fill-opacity:1;fill-rule:nonzero;stroke:none;stroke-width:0.03527778"
         id="path62"
         inkscape:connector-curvature="0" />
      <path
         d="m 32.825968,44.687486 c 0,0.99413 -0.80609,1.800225 -1.80057,1.800225 -0.99413,0 -1.80023,-0.806095 -1.80023,-1.800225 0,-0.994478 0.8061,-1.800225 1.80023,-1.800225 0.99448,0 1.80057,0.805747 1.80057,1.800225"
         style="fill:#dddedb;fill-opacity:1;fill-rule:nonzero;stroke:none;stroke-width:0.03527778"
         id="path64"
         inkscape:connector-curvature="0" />
      <path
         d="m 30.726588,44.395741 c -0.0797,0 -0.1598,-0.0021 -0.23953,-0.0063 h -3.5e-4 c 0,0 0,2.65e-4 -3.4e-4,2.65e-4 -0.25612,-0.0141 -0.50553,-0.05362 -0.71508,-0.134057 -0.14958,-0.0575 -0.2921,-0.128058 -0.42863,-0.202142 0.10549,-0.27446 0.27694,-0.516112 0.49389,-0.708376 0.24695,0.138641 0.51047,0.300214 0.80187,0.412043 0.27446,0.105482 0.61665,0.140758 0.95144,0.140758 0.37712,0 0.74471,-0.0448 0.99519,-0.08361 -0.19192,0.13688 -0.37571,0.284692 -0.55069,0.442738 -0.0455,0.0092 -0.30798,0.06103 -0.65017,0.09878 -7.1e-4,7.94e-4 -0.001,0.0011 -0.002,0.0019 -0.19861,0.02151 -0.42545,0.0381 -0.65581,0.0381"
         style="fill:#c3c5c2;fill-opacity:1;fill-rule:nonzero;stroke:none;stroke-width:0.03527778"
         id="path66"
         inkscape:connector-curvature="0" />
      <path
         d="m 25.225728,69.002343 c -0.24659,0.05115 -0.48789,-0.106892 -0.53904,-0.353483 l -0.43286,-2.082097 c -0.0512,-0.246591 0.10689,-0.487891 0.35348,-0.539043 0.24659,-0.05115 0.48789,0.106891 0.53905,0.353483 l 0.43285,2.082094 c 0.0512,0.246591 -0.10724,0.487891 -0.35348,0.539046"
         style="fill:#333436;fill-opacity:1;fill-rule:nonzero;stroke:none;stroke-width:0.03527778"
         id="path68"
         inkscape:connector-curvature="0" />
      <path
         d="m 22.318838,67.688245 c -0.24236,-0.06738 -0.38417,-0.31891 -0.31679,-0.561269 l 0.90381,-3.243085 c 0.0674,-0.242713 0.31891,-0.38453 0.56127,-0.316796 0.24236,0.06738 0.38418,0.318913 0.3168,0.561271 l -0.90382,3.243085 c -0.0674,0.242359 -0.31891,0.384175 -0.56127,0.316794"
         style="fill:#333436;fill-opacity:1;fill-rule:nonzero;stroke:none;stroke-width:0.03527778"
         id="path70"
         inkscape:connector-curvature="0" />
      <path
         d="m 23.621298,69.105705 v 0 c -0.25153,-0.01236 -0.44521,-0.226483 -0.43251,-0.47766 l 0.14464,-2.90054 c 0.0123,-0.251529 0.22613,-0.445204 0.47766,-0.432504 0.25153,0.01236 0.44521,0.226484 0.43251,0.47766 l -0.14464,2.90054 c -0.0124,0.251529 -0.22649,0.445204 -0.47766,0.432504"
         style="fill:#333436;fill-opacity:1;fill-rule:nonzero;stroke:none;stroke-width:0.03527778"
         id="path72"
         inkscape:connector-curvature="0" />
      <path
         d="m 32.041398,44.255686 c 0,0 -1.4471,0.31609 -2.27013,0 -0.82303,-0.316087 -1.43228,-1.036108 -2.04188,-0.482245 -0.60924,0.55386 -3.60045,7.533569 -4.37585,11.300529 -0.77576,3.766608 3.04659,2.6035 3.04659,2.6035 l 4.48698,-10.026296 1.15429,-3.395488"
         style="fill:#d3d5d2;fill-opacity:1;fill-rule:nonzero;stroke:none;stroke-width:0.03527778"
         id="path74"
         inkscape:connector-curvature="0" />
      <path
         d="m 31.382408,44.357641 c 3.4e-4,-7.94e-4 10e-4,-0.0011 0.002,-0.0019 0.34219,-0.03775 0.60466,-0.08961 0.65017,-0.09878 v 0 c -0.0455,0.0099 -0.30621,0.06314 -0.65194,0.100542"
         style="fill:#acaeac;fill-opacity:1;fill-rule:nonzero;stroke:none;stroke-width:0.03527778"
         id="path76"
         inkscape:connector-curvature="0" />
      <path
         d="m 30.725538,44.396093 c -0.0794,0 -0.15946,-0.0019 -0.23919,-0.0063 3.5e-4,0 3.5e-4,-2.65e-4 3.5e-4,-2.65e-4 h 3.4e-4 c 0.0797,0.0042 0.15981,0.0064 0.23954,0.0064 0.23036,0 0.4572,-0.01659 0.65581,-0.0381 -3.4e-4,2.65e-4 -3.4e-4,2.65e-4 -7.1e-4,2.65e-4 -0.19862,0.02188 -0.42581,0.0381 -0.65617,0.0381"
         style="fill:#b8bab8;fill-opacity:1;fill-rule:nonzero;stroke:none;stroke-width:0.03527778"
         id="path78"
         inkscape:connector-curvature="0" />
      <path
         d="m 27.017838,56.297051 c -0.0684,-0.218723 -0.1651,-0.367948 -0.29915,-0.420158 -0.33232,-0.12841 -0.65617,-0.240594 -0.95392,-0.335844 1.07492,-4.993216 4.6916,-11.100506 4.72158,-11.151306 0.0797,0.0046 0.15981,0.0063 0.23919,0.0063 0.23036,0 0.45755,-0.01622 0.65616,-0.0381 -0.88512,0.838906 -1.52753,1.942393 -1.79317,3.205692 -0.2607,1.241425 -0.37041,2.506133 -0.34995,3.770841 l 0.56091,-1.253418 v 0 l -2.78165,6.215993"
         style="fill:#c6c8c6;fill-opacity:1;fill-rule:nonzero;stroke:none;stroke-width:0.03527778"
         id="path80"
         inkscape:connector-curvature="0" />
      <path
         d="m 31.381698,44.357993 c 3.5e-4,0 3.5e-4,0 7.2e-4,-2.65e-4 0.34572,-0.0374 0.60642,-0.09066 0.65193,-0.100541 v 0 c -0.0455,0.0099 -0.30656,0.06314 -0.65264,0.100893"
         style="fill:#a2a5a4;fill-opacity:1;fill-rule:nonzero;stroke:none;stroke-width:0.03527778"
         id="path82"
         inkscape:connector-curvature="0" />
      <path
         d="m 29.238578,51.334526 c -0.0205,-1.264708 0.0892,-2.529416 0.34995,-3.770841 0.26564,-1.263299 0.90805,-2.366786 1.79317,-3.205692 0.34608,-0.03775 0.60713,-0.09102 0.65264,-0.100894 -0.94086,0.850194 -1.62348,1.992487 -1.89971,3.306586 -0.17462,0.831143 -0.28645,1.672518 -0.33514,2.517423 l -0.56091,1.253418"
         style="fill:#afb1af;fill-opacity:1;fill-rule:nonzero;stroke:none;stroke-width:0.03527778"
         id="path84"
         inkscape:connector-curvature="0" />
      <path
         d="m 43.885198,58.935124 0.11501,-0.925338 -0.11501,0.925338"
         style="fill:#65839b;fill-opacity:1;fill-rule:nonzero;stroke:none;stroke-width:0.03527778"
         id="path86"
         inkscape:connector-curvature="0" />
      <path
         d="m 37.243458,59.769091 c -1.34056,0 -2.68111,-0.119592 -4.00579,-0.358423 l -2.63596,-0.475544 -0.115,-0.925338 2.75096,0.496007 c 1.32468,0.239183 2.66523,0.358423 4.00579,0.358423 1.34055,0 2.68146,-0.11924 4.00579,-0.358423 l 2.75096,-0.496007 -0.11501,0.925338 -2.63595,0.475544 c -1.32433,0.238831 -2.66524,0.358423 -4.00579,0.358423"
         style="fill:#babcba;fill-opacity:1;fill-rule:nonzero;stroke:none;stroke-width:0.03527778"
         id="path88"
         inkscape:connector-curvature="0" />
      <path
         d="m 44.352278,47.563685 c -0.59972,-2.854325 -3.11749,-4.897967 -6.03461,-4.897967 h -1.07421 -1.07421 c -2.91677,0 -5.43454,2.043642 -6.03462,4.897967 -0.38206,1.818568 -0.46355,3.687233 -0.24094,5.53226 l 0.59302,4.913841 2.75096,0.496007 c 2.649,0.478015 5.36257,0.478015 8.01158,0 l 2.75096,-0.496007 0.59302,-4.913841 c 0.2226,-1.845027 0.14111,-3.713692 -0.24095,-5.53226"
         style="fill:#dddedb;fill-opacity:1;fill-rule:nonzero;stroke:none;stroke-width:0.03527778"
         id="path90"
         inkscape:connector-curvature="0" />
      <path
         d="m 37.293908,45.418795 c -1.3141,0 -2.60421,-0.366184 -3.75638,-1.000829 l -0.57362,-0.31609 c -0.18556,-0.04516 -0.36583,-0.101952 -0.54645,-0.157691 0.60572,-0.465315 1.29787,-0.819857 2.04399,-1.036461 0.28646,1.272469 1.42311,2.222852 2.78201,2.222852 1.3589,0 2.4959,-0.950383 2.782,-2.222852 0.74648,0.216604 1.43828,0.571146 2.04435,1.036461 -0.18097,0.05574 -0.36089,0.112535 -0.54681,0.157691 l -0.60713,0.334434 c -1.02376,0.564091 -2.15688,0.937331 -3.32528,0.976841 -0.0614,0.0021 -0.12241,0.0039 -0.1838,0.0046 -0.0374,7.93e-4 -0.0751,0.0011 -0.11288,0.0011"
         style="fill:#c3c5c2;fill-opacity:1;fill-rule:nonzero;stroke:none;stroke-width:0.03527778"
         id="path92"
         inkscape:connector-curvature="0" />
      <path
         d="m 37.243458,45.130576 c -1.5748,0 -2.8515,-1.276702 -2.8515,-2.851502 v -2.964746 h 5.703 v 2.964746 c 0,1.5748 -1.2767,2.851502 -2.8515,2.851502"
         style="fill:#d3d5d2;fill-opacity:1;fill-rule:nonzero;stroke:none;stroke-width:0.03527778"
         id="path94"
         inkscape:connector-curvature="0" />
      <path
         d="m 37.243458,41.537535 c -0.80998,0 -1.6196,-0.09596 -2.4123,-0.288574 l -0.4392,-0.106537 v -0.830791 l 0.4392,0.106537 c 0.7927,0.192265 1.60232,0.288573 2.4123,0.288573 0.80998,0 1.61995,-0.09631 2.41264,-0.288573 l 0.43886,-0.106537 v 0.830791 l -0.43886,0.106537 c -0.79269,0.192617 -1.60266,0.288574 -2.41264,0.288574"
         style="fill:#babcba;fill-opacity:1;fill-rule:nonzero;stroke:none;stroke-width:0.03527778"
         id="path96"
         inkscape:connector-curvature="0" />
      <path
         d="m 41.522998,39.964851 -1.8669,0.453319 c -1.58538,0.384881 -3.23991,0.384881 -4.82494,0 l -1.86725,-0.453319 c -4.185,-1.015648 -7.13175,-4.762852 -7.13175,-9.069563 v -8.171745 c 0,-6.302021 5.10928,-11.411302 11.4113,-11.411302 6.30237,0 11.4113,5.109281 11.4113,11.411302 v 8.171745 c 0,4.306711 -2.94675,8.053915 -7.13176,9.069563"
         style="fill:#dddedb;fill-opacity:1;fill-rule:nonzero;stroke:none;stroke-width:0.03527778"
         id="path98"
         inkscape:connector-curvature="0" />
      <path
         d="m 25.832508,30.93621 c 0,-3.44e-4 0,-3.44e-4 0,-3.44e-4 0,3.44e-4 0,0 0,3.44e-4 m 0,-0.0074 c -3.5e-4,-0.0018 -3.5e-4,-0.0039 -3.5e-4,-0.0056 0,0.0018 0,0.0039 3.5e-4,0.0056 m -3.5e-4,-0.01058 c 0,-0.0025 0,-0.0049 0,-0.0074 0,0.0025 0,0.0049 0,0.0074 m 0,-0.01129 c 0,-0.0039 0,-0.0078 0,-0.01129 0,0.0035 0,0.0071 0,0.01129"
         style="fill:#6b8aa5;fill-opacity:1;fill-rule:nonzero;stroke:none;stroke-width:0.03527778"
         id="path100"
         inkscape:connector-curvature="0" />
      <path
         d="m 27.216458,35.686715 c -0.0173,0 -0.0346,0 -0.0519,-3.43e-4 -0.83997,-1.401234 -1.32468,-3.028598 -1.33209,-4.750153 0,-3.44e-4 0,0 0,-3.44e-4 0,-0.0025 0,-0.0046 0,-0.0071 -3.5e-4,-0.0018 -3.5e-4,-0.0039 -3.5e-4,-0.0056 0,-0.0018 0,-0.0032 0,-0.0049 0,-0.0025 0,-0.0049 0,-0.0074 0,-0.0014 0,-0.0025 0,-0.0039 0,-0.0042 0,-0.0078 0,-0.01164 0,0 0,0 0,0 v -3.974042 c 0.0868,-0.09349 0.1704,-0.188383 0.26177,-0.280105 1.64782,-1.647825 3.66677,-2.535062 5.39009,-2.535062 1.0421,0 1.97661,0.324909 2.6543,1.002595 1.79811,1.798108 1.11195,5.399969 -1.53247,8.044391 -1.64782,1.647825 -3.66607,2.53365 -5.38939,2.53365"
         style="fill:#d0d2cf;fill-opacity:1;fill-rule:nonzero;stroke:none;stroke-width:0.03527778"
         id="path102"
         inkscape:connector-curvature="0" />
      <path
         d="m 34.473798,27.792254 c 0,1.75895 -1.42593,3.185231 -3.18523,3.185231 -1.75895,0 -3.18523,-1.426281 -3.18523,-3.185231 0,-1.759302 1.42628,-3.18523 3.18523,-3.18523 1.7593,0 3.18523,1.425928 3.18523,3.18523"
         style="fill:#50c6e4;fill-opacity:1;fill-rule:nonzero;stroke:none;stroke-width:0.03527778"
         id="path104"
         inkscape:connector-curvature="0" />
      <path
         d="m 33.643008,27.792254 c 0,1.300339 -1.0541,2.354439 -2.35444,2.354439 -1.29999,0 -2.35409,-1.0541 -2.35409,-2.354439 0,-1.300338 1.0541,-2.354438 2.35409,-2.354438 1.30034,0 2.35444,1.0541 2.35444,2.354438"
         style="fill:#85d7e9;fill-opacity:1;fill-rule:nonzero;stroke:none;stroke-width:0.03527778"
         id="path106"
         inkscape:connector-curvature="0" />
      <path
         d="m 33.289878,27.792254 c 0,1.105253 -0.89606,2.000956 -2.00131,2.000956 -1.10525,0 -2.00096,-0.895703 -2.00096,-2.000956 0,-1.105252 0.89571,-2.001308 2.00096,-2.001308 1.10525,0 2.00131,0.896056 2.00131,2.001308"
         style="fill:#ffffff;fill-opacity:1;fill-rule:nonzero;stroke:none;stroke-width:0.03527778"
         id="path108"
         inkscape:connector-curvature="0" />
      <path
         d="m 48.654758,30.936915 c 0,-3.43e-4 0,-7.14e-4 0,-0.0014 0,3.44e-4 0,0.0011 0,0.0014 m 0,-0.0081 c 0,-0.0018 0,-0.0039 0,-0.0053 0,0.0018 0,0.0035 0,0.0053 m 0,-0.01058 c 0,-0.0025 0,-0.0049 0,-0.0074 0,0.0025 0,0.0049 0,0.0074 m 0,-0.01129 c 0,-0.0042 0,-0.0078 0,-0.01164 0,0.0039 0,0.0078 0,0.01164"
         style="fill:#6b8aa5;fill-opacity:1;fill-rule:nonzero;stroke:none;stroke-width:0.03527778"
         id="path110"
         inkscape:connector-curvature="0" />
      <path
         d="m 47.270458,35.686715 c -1.72297,0 -3.74156,-0.885825 -5.38939,-2.53365 -2.64442,-2.644422 -3.33057,-6.246283 -1.53246,-8.044391 0.67768,-0.677686 1.61219,-1.002595 2.65465,-1.002595 1.72297,0 3.74191,0.887237 5.38974,2.535062 0.0917,0.09172 0.17498,0.186619 0.26176,0.280105 v 3.974042 c 0,0 0,0 0,3.44e-4 0,0.0035 0,0.0071 0,0.01129 0,0.0014 0,0.0025 0,0.0039 0,0.0025 0,0.0049 0,0.0074 0,0.0018 0,0.0035 0,0.0053 0,0.0014 0,0.0035 0,0.0053 0,0.0021 0,0.0046 0,0.0067 0,7.14e-4 0,0.0011 0,0.0014 -0.008,1.721555 -0.49248,3.348214 -1.33244,4.749447 -0.0173,3.44e-4 -0.0346,3.44e-4 -0.0519,3.44e-4"
         style="fill:#d0d2cf;fill-opacity:1;fill-rule:nonzero;stroke:none;stroke-width:0.03527778"
         id="path112"
         inkscape:connector-curvature="0" />
      <path
         d="m 40.013118,27.792254 c 0,1.75895 1.42628,3.185231 3.18523,3.185231 1.7593,0 3.18523,-1.426281 3.18523,-3.185231 0,-1.759302 -1.42593,-3.18523 -3.18523,-3.18523 -1.75895,0 -3.18523,1.425928 -3.18523,3.18523"
         style="fill:#50c6e4;fill-opacity:1;fill-rule:nonzero;stroke:none;stroke-width:0.03527778"
         id="path114"
         inkscape:connector-curvature="0" />
      <path
         d="m 40.844258,27.792254 c 0,1.300339 1.05375,2.354439 2.35409,2.354439 1.30034,0 2.35444,-1.0541 2.35444,-2.354439 0,-1.300338 -1.0541,-2.354438 -2.35444,-2.354438 -1.30034,0 -2.35409,1.0541 -2.35409,2.354438"
         style="fill:#85d7e9;fill-opacity:1;fill-rule:nonzero;stroke:none;stroke-width:0.03527778"
         id="path116"
         inkscape:connector-curvature="0" />
      <path
         d="m 37.243458,58.859276 c -0.10972,0 -0.21943,-7.94e-4 -0.32914,-0.0024 v -6.15668 c -1.25766,-0.162983 -2.23273,-1.226608 -2.23273,-2.52871 0,-1.414991 1.14688,-2.561873 2.56187,-2.561873 1.41499,0 2.56187,1.146882 2.56187,2.561873 0,1.302102 -0.97473,2.365727 -2.23238,2.52871 v 6.156593 c -0.11006,0.0019 -0.21978,0.0024 -0.32949,0.0024"
         style="fill:#c3c5c2;fill-opacity:1;fill-rule:nonzero;stroke:none;stroke-width:0.03527778"
         id="path118"
         inkscape:connector-curvature="0" />
      <path
         d="m 34.986388,50.171418 c 0,1.246717 1.01035,2.257425 2.25707,2.257425 1.24671,0 2.25742,-1.010708 2.25742,-2.257425 0,-1.246717 -1.01071,-2.257425 -2.25742,-2.257425 -1.24672,0 -2.25707,1.010708 -2.25707,2.257425"
         style="fill:#50c6e4;fill-opacity:1;fill-rule:nonzero;stroke:none;stroke-width:0.03527778"
         id="path120"
         inkscape:connector-curvature="0" />
      <path
         d="m 35.575168,50.171418 c 0,0.921456 0.74683,1.66864 1.66829,1.66864 0.92145,0 1.66864,-0.747184 1.66864,-1.66864 0,-0.921457 -0.74719,-1.668285 -1.66864,-1.668285 -0.92146,0 -1.66829,0.746828 -1.66829,1.668285"
         style="fill:#85d7e9;fill-opacity:1;fill-rule:nonzero;stroke:none;stroke-width:0.03527778"
         id="path122"
         inkscape:connector-curvature="0" />
      <path
         d="m 36.120568,50.171418 c 0,0.620535 0.5027,1.123243 1.12289,1.123243 0.62018,0 1.12324,-0.502708 1.12324,-1.123243 0,-0.620183 -0.50306,-1.122892 -1.12324,-1.122892 -0.62019,0 -1.12289,0.502709 -1.12289,1.122892"
         style="fill:#ffffff;fill-opacity:1;fill-rule:nonzero;stroke:none;stroke-width:0.03527778"
         id="path124"
         inkscape:connector-curvature="0" />
      <path
         d="m 42.394718,21.837366 h -10.30217 c -1.06856,0 -1.93816,-0.869597 -1.93816,-1.938161 v -6.107642 c 0.2166,-0.172155 0.43568,-0.340783 0.66463,-0.497063 v 6.604705 c 0,0.702028 0.57115,1.273175 1.27353,1.273175 h 10.30217 c 0.70203,0 1.27317,-0.571147 1.27317,-1.273175 V 13.2945 c 0.22896,0.15628 0.44838,0.324908 0.66499,0.497063 v 6.107642 c 0,1.068564 -0.8696,1.938161 -1.93816,1.938161"
         style="fill:#d0d2cf;fill-opacity:1;fill-rule:nonzero;stroke:none;stroke-width:0.03527778"
         id="path126"
         inkscape:connector-curvature="0" />
      <path
         d="m 26.763838,56.86467 v 0 l 0.254,-0.567619 v 0 l -0.254,0.567619 m -1.10843,-0.770467 c -0.93944,-0.310795 -1.66511,-0.46637 -1.66511,-0.46637 0,0 -0.23142,-0.482248 -0.54574,-0.963438 0.0504,-0.213077 0.10724,-0.434269 0.16721,-0.660046 0.3683,0.528461 0.65546,1.125009 0.65546,1.125009 0,0 0.64065,0.137228 1.49754,0.411691 -0.0402,0.185912 -0.0765,0.370417 -0.10936,0.553154"
         style="fill:#babcba;fill-opacity:1;fill-rule:nonzero;stroke:none;stroke-width:0.03527778"
         id="path128"
         inkscape:connector-curvature="0" />
      <path
         d="m 26.763838,56.86467 c -0.0688,-0.259644 -0.17357,-0.431446 -0.32208,-0.48895 -0.005,-0.0019 -0.009,-0.0035 -0.0138,-0.0053 -3.5e-4,-2.64e-4 -7.2e-4,-2.64e-4 -0.001,-2.64e-4 -0.26564,-0.102659 -0.52599,-0.194382 -0.77153,-0.275874 0.0328,-0.182737 0.0691,-0.367241 0.10936,-0.553153 0.29775,0.09525 0.6216,0.207433 0.95391,0.335843 0.13406,0.05221 0.23072,0.201435 0.29916,0.420159 l -0.254,0.567618"
         style="fill:#afb1af;fill-opacity:1;fill-rule:nonzero;stroke:none;stroke-width:0.03527778"
         id="path130"
         inkscape:connector-curvature="0" />
      <path
         d="m 23.990298,55.627833 c 0,0 -0.99695,-2.077157 -1.66158,-1.910998 -0.66499,0.166158 -1.12183,4.486981 -0.91405,7.228768 0.20779,2.742142 1.03858,4.943827 1.57868,5.317773 0.54011,0.373944 1.911,0.291042 2.32657,0 0.41557,-0.29069 2.40947,-9.389181 1.12184,-9.887656 -1.288,-0.498827 -2.45146,-0.747887 -2.45146,-0.747887"
         style="fill:#dddedb;fill-opacity:1;fill-rule:nonzero;stroke:none;stroke-width:0.03527778"
         id="path132"
         inkscape:connector-curvature="0" />
      <path
         d="m 23.163388,66.355803 c -0.0628,-0.02717 -0.11994,-0.05786 -0.17004,-0.09243 -0.001,-2.64e-4 -0.002,-0.0011 -0.003,-0.0019 10e-4,7.94e-4 0.002,0.0013 0.003,0.0019 0.0501,0.03457 0.10725,0.06526 0.17004,0.09243 v 0"
         style="fill:#303133;fill-opacity:1;fill-rule:nonzero;stroke:none;stroke-width:0.03527778"
         id="path134"
         inkscape:connector-curvature="0" />
      <path
         d="m 22.990178,66.26126 c -0.001,-7.94e-4 -0.002,-0.0011 -0.002,-0.0019 7.1e-4,2.65e-4 10e-4,0.0011 0.002,0.0019 m -0.004,-0.0024 c -3.5e-4,-2.64e-4 -7.2e-4,-7.93e-4 -10e-4,-0.0011 3.4e-4,2.65e-4 7.1e-4,7.94e-4 10e-4,0.0011"
         style="fill:#303133;fill-opacity:1;fill-rule:nonzero;stroke:none;stroke-width:0.03527778"
         id="path136"
         inkscape:connector-curvature="0" />
      <path
         d="m 26.427998,56.370428 c -3.5e-4,-2.64e-4 -7.2e-4,-2.64e-4 -10e-4,-2.64e-4 3.4e-4,0 7.1e-4,0 10e-4,2.64e-4"
         style="fill:#a6a8a7;fill-opacity:1;fill-rule:nonzero;stroke:none;stroke-width:0.03527778"
         id="path138"
         inkscape:connector-curvature="0" />
      <path
         d="m 24.117658,66.513847 c -0.3489,0 -0.69886,-0.04833 -0.95427,-0.158044 -0.0628,-0.02717 -0.11994,-0.05786 -0.17004,-0.09243 -0.001,-2.64e-4 -0.002,-0.0011 -0.003,-0.0019 -3.4e-4,-2.64e-4 -3.4e-4,-2.64e-4 -3.4e-4,-2.64e-4 -0.001,-7.94e-4 -0.002,-0.0013 -0.002,-0.0019 -3.5e-4,-2.64e-4 -7.2e-4,-7.93e-4 -0.001,-7.93e-4 -3.5e-4,-2.65e-4 -7.2e-4,-7.94e-4 -10e-4,-0.0011 -0.14958,-0.10795 -0.32068,-0.358068 -0.4946,-0.715433 0.22367,0.08537 0.5013,0.159808 0.78917,0.159808 0.48401,0 0.9973,-0.210608 1.33385,-0.934153 0.74013,-1.591382 0.92146,-7.720894 0.94615,-8.70444 0.2734,0.0889 0.56621,0.1905 0.86713,0.306565 3.4e-4,0 7.1e-4,0 0.001,2.64e-4 0.005,0.0019 0.009,0.0035 0.0138,0.0053 0.30691,0.118888 0.42721,0.725665 0.42721,1.585738 0,2.748491 -1.23261,8.080372 -1.54905,8.301918 -0.048,0.03387 -0.10901,0.06456 -0.17956,0.09243 -0.22613,0.08819 -0.55421,0.144285 -0.89465,0.155927 -0.0427,0.0013 -0.0854,0.0021 -0.12805,0.0021"
         style="fill:#d0d2cf;fill-opacity:1;fill-rule:nonzero;stroke:none;stroke-width:0.03527778"
         id="path140"
         inkscape:connector-curvature="0" />
      <path
         d="m 27.085568,66.934711 v 0 c -0.24976,0.172861 -0.59266,0.110774 -0.76588,-0.138993 l -1.18392,-1.709208 c -0.17286,-0.249767 -0.11077,-0.592667 0.139,-0.765882 0.24976,-0.17286 0.59266,-0.11077 0.76588,0.138994 l 1.18392,1.709208 c 0.17321,0.249767 0.11077,0.592667 -0.139,0.765881"
         style="fill:#333436;fill-opacity:1;fill-rule:nonzero;stroke:none;stroke-width:0.03527778"
         id="path142"
         inkscape:connector-curvature="0" />
      <path
         d="m 22.490638,60.179724 h -1.11407 c 0.008,0.264229 0.0198,0.522817 0.0381,0.765879 0.0314,0.416632 0.079,0.818798 0.13617,1.205796 h 0.9398 v -1.971675"
         style="fill:#50c6e4;fill-opacity:1;fill-rule:nonzero;stroke:none;stroke-width:0.03527778"
         id="path144"
         inkscape:connector-curvature="0" />
      <path
         d="m 21.601998,62.48301 c 0.0346,0.207081 0.073,0.407106 0.11359,0.602191 h 0.77505 V 62.48301 h -0.88864"
         style="fill:#50c6e4;fill-opacity:1;fill-rule:nonzero;stroke:none;stroke-width:0.03527778"
         id="path146"
         inkscape:connector-curvature="0" />
      <path
         d="m 35.263318,65.62767 c 0,0 -1.10808,-3.774721 -1.66194,-4.339167 -0.55386,-0.564443 -2.43734,-1.985433 -3.54542,-1.108779 -1.10772,0.876652 0.58279,17.661112 0.58279,17.661112 h 4.62457 l 1.60619,-9.361664 0.14076,-0.742596 c 0.20744,-1.095023 -0.63253,-2.108906 -1.74695,-2.108906"
         style="fill:#dddedb;fill-opacity:1;fill-rule:nonzero;stroke:none;stroke-width:0.03527778"
         id="path148"
         inkscape:connector-curvature="0" />
      <path
         d="m 45.199648,27.792254 c 0,1.105253 -0.89605,2.000956 -2.0013,2.000956 -1.10526,0 -2.00096,-0.895703 -2.00096,-2.000956 0,-1.105252 0.8957,-2.001308 2.00096,-2.001308 1.10525,0 2.0013,0.896056 2.0013,2.001308"
         style="fill:#ffffff;fill-opacity:1;fill-rule:nonzero;stroke:none;stroke-width:0.03527778"
         id="path150"
         inkscape:connector-curvature="0" />
      <path
         d="m 33.601378,68.714828 v -7.426325 c 0.55386,0.564446 1.66194,4.339167 1.66194,4.339167 l -1.66194,3.087158"
         style="fill:#d0d2cf;fill-opacity:1;fill-rule:nonzero;stroke:none;stroke-width:0.03527778"
         id="path152"
         inkscape:connector-curvature="0" />
      <path
         d="m 35.262608,77.840836 h -1.66123 V 77.73712 l 1.66123,0.103716"
         style="fill:#d0d2cf;fill-opacity:1;fill-rule:nonzero;stroke:none;stroke-width:0.03527778"
         id="path154"
         inkscape:connector-curvature="0" />
      <path
         d="m 35.333868,77.428793 0.0448,-0.26035 -0.19897,-0.349605 c -0.37994,-0.66816 -0.93027,-1.204735 -1.57832,-1.567037 v -4.224515 l 2.22779,-5.296606 c 0.81245,0.274463 1.35114,1.108075 1.1811,2.005896 l -0.14076,0.742596 -1.53564,8.949621"
         style="fill:#d0d2cf;fill-opacity:1;fill-rule:nonzero;stroke:none;stroke-width:0.03527778"
         id="path156"
         inkscape:connector-curvature="0" />
      <path
         d="m 35.263318,77.840836 v 0 h -7.2e-4 7.2e-4 l 0.0705,-0.412043 -0.0705,0.412043 m -1.66194,-0.103716 -2.9912,-0.186973 c -0.0437,-0.445559 -0.13371,-1.387827 -0.24236,-2.620786 0.38206,-0.131939 0.79022,-0.204258 1.2125,-0.204258 0.72002,0 1.41358,0.186973 2.02106,0.526698 v 2.485319"
         style="fill:#c3c5c2;fill-opacity:1;fill-rule:nonzero;stroke:none;stroke-width:0.03527778"
         id="path158"
         inkscape:connector-curvature="0" />
      <path
         d="m 35.263318,77.840836 h -7.2e-4 l -1.66123,-0.103716 v -2.485319 c 0.64805,0.362302 1.19839,0.898877 1.57833,1.567037 l 0.19897,0.349605 -0.0448,0.26035 -0.0706,0.412043"
         style="fill:#b7b9b7;fill-opacity:1;fill-rule:nonzero;stroke:none;stroke-width:0.03527778"
         id="path160"
         inkscape:connector-curvature="0" />
      <path
         d="m 35.263318,77.840836 -0.41593,-0.730956 c -0.73589,-1.294694 -2.11032,-2.094087 -3.59939,-2.094087 -1.70815,0 -3.19546,1.166283 -3.60257,2.825043 h 7.61789"
         style="fill:#d3d5d2;fill-opacity:1;fill-rule:nonzero;stroke:none;stroke-width:0.03527778"
         id="path162"
         inkscape:connector-curvature="0" />
      <path
         d="m 35.263318,78.685738 h -7.61789 v -0.844902 h 7.61789 v 0.844902"
         style="fill:#50c6e4;fill-opacity:1;fill-rule:nonzero;stroke:none;stroke-width:0.03527778"
         id="path164"
         inkscape:connector-curvature="0" />
      <path
         d="m 32.974848,70.355597 h -0.19615 c 0.0494,-0.156279 0.0804,-0.320675 0.0907,-0.490712 0.002,-0.04127 0.004,-0.08255 0.004,-0.12418 v 0 0 c 0,-0.0024 0,-0.0049 0,-0.0074 0,-2.65e-4 0,-0.0011 0,-0.0019 0,-0.0019 0,-0.0039 0,-0.0056 0,-2.65e-4 0,-0.0011 0,-0.0013 0,-0.0021 0,-0.0042 0,-0.0063 0,-2.65e-4 0,-2.65e-4 0,-2.65e-4 -0.002,-0.129823 -0.0152,-0.256823 -0.0399,-0.379941 h 0.14147 c 0.28081,0 0.5087,0.227893 0.5087,0.509058 0,0.281162 -0.22789,0.508704 -0.5087,0.508704"
         style="fill:#c3c5c2;fill-opacity:1;fill-rule:nonzero;stroke:none;stroke-width:0.03527778"
         id="path166"
         inkscape:connector-curvature="0" />
      <path
         d="m 32.873248,69.740705 c 0,1.12395 -0.91123,2.035175 -2.03553,2.035175 -1.1243,0 -2.03553,-0.911225 -2.03553,-2.035175 0,-1.124302 0.91123,-2.035527 2.03553,-2.035527 1.1243,0 2.03553,0.911225 2.03553,2.035527"
         style="fill:#d3d5d2;fill-opacity:1;fill-rule:nonzero;stroke:none;stroke-width:0.03527778"
         id="path168"
         inkscape:connector-curvature="0" />
      <path
         d="m 32.873248,69.733297 c 0,-2.65e-4 0,-0.0011 0,-0.0019 0,7.93e-4 0,0.0013 0,0.0019 m 0,-0.0074 c 0,-2.64e-4 0,-0.0011 0,-0.0013 0,2.65e-4 0,0.0011 0,0.0013 m 0,-0.0078 v -2.65e-4 c 0,0 0,0 0,2.65e-4"
         style="fill:#b8bab8;fill-opacity:1;fill-rule:nonzero;stroke:none;stroke-width:0.03527778"
         id="path170"
         inkscape:connector-curvature="0" />
      <path
         d="m 30.837718,71.77588 c -0.75706,0 -1.41005,-0.418042 -1.76071,-1.03152 0.34783,0.277283 0.78281,0.450143 1.26223,0.450143 1.12395,0 2.03553,-0.911225 2.03553,-2.035527 0,-0.36689 -0.10513,-0.706615 -0.27481,-1.004006 0.46214,0.368652 0.76588,0.927452 0.77329,1.562806 v 2.65e-4 c 0,0.0021 0,0.0042 0,0.0063 0,2.64e-4 0,0.0011 0,0.0013 0,0.0021 0,0.0039 0,0.0056 0,7.94e-4 0,0.0013 0,0.0019 0,0.0024 0,0.0049 0,0.0074 0,0.04163 -10e-4,0.0829 -0.004,0.124179 -0.0642,1.066094 -0.94933,1.910996 -2.03165,1.910996"
         style="fill:#c6c8c6;fill-opacity:1;fill-rule:nonzero;stroke:none;stroke-width:0.03527778"
         id="path172"
         inkscape:connector-curvature="0" />
      <path
         d="m 32.382528,63.085201 h -2.61126 V 62.48301 h 2.61126 v 0.602191"
         style="fill:#50c6e4;fill-opacity:1;fill-rule:nonzero;stroke:none;stroke-width:0.03527778"
         id="path174"
         inkscape:connector-curvature="0" />
      <path
         d="m 39.215838,65.62767 c 0,0 1.10807,-3.774721 1.66193,-4.339167 0.55387,-0.564443 2.43735,-1.985433 3.54507,-1.108779 1.10807,0.876652 -0.58279,17.661112 -0.58279,17.661112 h -4.62421 l -1.6062,-9.361664 -0.14076,-0.742596 c -0.20743,-1.095023 0.63218,-2.108906 1.74696,-2.108906"
         style="fill:#dddedb;fill-opacity:1;fill-rule:nonzero;stroke:none;stroke-width:0.03527778"
         id="path176"
         inkscape:connector-curvature="0" />
      <path
         d="m 39.218308,65.619203 c 0.0579,-0.19544 1.1183,-3.774368 1.6577,-4.328935 -0.53904,0.554567 -1.59985,4.133495 -1.6577,4.328935"
         style="fill:#afb1af;fill-opacity:1;fill-rule:nonzero;stroke:none;stroke-width:0.03527778"
         id="path178"
         inkscape:connector-curvature="0" />
      <path
         d="m 40.877768,68.714828 -1.66193,-3.087158 c 0,0 0.001,-0.0028 0.002,-0.0085 0.0579,-0.19544 1.11866,-3.774368 1.6577,-4.328935 7.2e-4,-7.94e-4 10e-4,-0.0011 0.002,-0.0019 v 7.426406"
         style="fill:#d0d2cf;fill-opacity:1;fill-rule:nonzero;stroke:none;stroke-width:0.03527778"
         id="path180"
         inkscape:connector-curvature="0" />
      <path
         d="m 40.877768,77.840836 h -1.66123 l 1.66123,-0.103716 v 0.103716"
         style="fill:#d0d2cf;fill-opacity:1;fill-rule:nonzero;stroke:none;stroke-width:0.03527778"
         id="path182"
         inkscape:connector-curvature="0" />
      <path
         d="m 39.120588,77.28627 -1.51095,-8.807098 -0.14076,-0.742596 c -0.17004,-0.897821 0.36866,-1.731433 1.1811,-2.005896 l 2.22779,5.296606 v 4.224515 c -0.6484,0.362654 -1.19838,0.898877 -1.57868,1.567037 l -0.19861,0.349605 0.0201,0.117827"
         style="fill:#d0d2cf;fill-opacity:1;fill-rule:nonzero;stroke:none;stroke-width:0.03527778"
         id="path184"
         inkscape:connector-curvature="0" />
      <path
         d="m 39.215838,77.840836 v 0 l -0.0953,-0.554566 0.0953,0.554566 h 7.1e-4 -7.1e-4 m 1.66193,-0.103716 v -2.485319 c 0.60749,-0.339725 1.3007,-0.526698 2.02107,-0.526698 0.42227,0 0.83008,0.07232 1.2125,0.204258 -0.10866,1.232959 -0.19897,2.175227 -0.24236,2.620786 l -2.99121,0.186973"
         style="fill:#c3c5c2;fill-opacity:1;fill-rule:nonzero;stroke:none;stroke-width:0.03527778"
         id="path186"
         inkscape:connector-curvature="0" />
      <path
         d="m 39.216538,77.840836 h -7.1e-4 l -0.0953,-0.554566 -0.0201,-0.117827 0.19861,-0.349605 c 0.3803,-0.66816 0.93028,-1.204383 1.57868,-1.567037 v 2.485319 l -1.66123,0.103716"
         style="fill:#b7b9b7;fill-opacity:1;fill-rule:nonzero;stroke:none;stroke-width:0.03527778"
         id="path188"
         inkscape:connector-curvature="0" />
      <path
         d="m 39.215838,77.840836 0.41592,-0.730956 c 0.7359,-1.294694 2.11032,-2.094087 3.59939,-2.094087 v 0 c 1.70815,0 3.19546,1.166283 3.60257,2.825043 h -7.61788"
         style="fill:#d3d5d2;fill-opacity:1;fill-rule:nonzero;stroke:none;stroke-width:0.03527778"
         id="path190"
         inkscape:connector-curvature="0" />
      <path
         d="m 39.215838,78.685738 h 7.61788 v -0.844902 h -7.61788 v 0.844902"
         style="fill:#50c6e4;fill-opacity:1;fill-rule:nonzero;stroke:none;stroke-width:0.03527778"
         id="path192"
         inkscape:connector-curvature="0" />
      <path
         d="m 41.700448,70.355597 h -0.19614 c -0.28081,0 -0.50871,-0.227542 -0.50871,-0.508704 0,-0.281165 0.2279,-0.509058 0.50871,-0.509058 h 0.14146 c -0.0247,0.123118 -0.0385,0.250118 -0.0399,0.379941 v 2.65e-4 c 0,0.0021 0,0.0042 0,0.0067 0,2.64e-4 0,7.94e-4 0,0.0011 0,0.0019 0,0.0039 0,0.0056 0,7.93e-4 0,0.0013 0,0.0019 0,0.0024 0,0.0049 0,0.0074 v 0 0 c 0,0.02188 3.5e-4,0.04375 10e-4,0.06562 0.006,0.190854 0.0385,0.375356 0.0935,0.549275"
         style="fill:#c3c5c2;fill-opacity:1;fill-rule:nonzero;stroke:none;stroke-width:0.03527778"
         id="path194"
         inkscape:connector-curvature="0" />
      <path
         d="m 41.605908,69.740705 c 0,1.12395 0.91122,2.035175 2.03553,2.035175 1.12395,0 2.03552,-0.911225 2.03552,-2.035175 0,-1.124302 -0.91157,-2.035527 -2.03552,-2.035527 -1.12431,0 -2.03553,0.911225 -2.03553,2.035527"
         style="fill:#d3d5d2;fill-opacity:1;fill-rule:nonzero;stroke:none;stroke-width:0.03527778"
         id="path196"
         inkscape:connector-curvature="0" />
      <path
         d="m 41.605908,69.733297 c 0,-2.65e-4 0,-0.0011 0,-0.0019 0,7.93e-4 0,0.0011 0,0.0019 m 0,-0.0074 c 0,-2.64e-4 0,-7.93e-4 0,-0.0011 0,2.65e-4 0,7.94e-4 0,0.0011 m 0,-0.0078 v -2.65e-4 2.65e-4"
         style="fill:#b8bab8;fill-opacity:1;fill-rule:nonzero;stroke:none;stroke-width:0.03527778"
         id="path198"
         inkscape:connector-curvature="0" />
      <path
         d="m 43.641438,71.77588 c -1.10208,0 -1.9999,-0.875945 -2.03447,-1.969558 -7.2e-4,-0.02188 -0.001,-0.04374 -0.001,-0.06562 0,-0.0024 0,-0.0049 0,-0.0074 0,-7.94e-4 0,-0.0011 0,-0.0019 0,-0.0019 0,-0.0039 0,-0.0056 0,-2.65e-4 0,-7.94e-4 0,-0.0011 0,-0.0024 0,-0.0046 0,-0.0067 v -2.65e-4 c 0.007,-0.635354 0.31115,-1.194154 0.77329,-1.562806 -0.17004,0.297391 -0.27482,0.637116 -0.27482,1.004006 0,1.124302 0.91123,2.035527 2.03553,2.035527 0.47942,0 0.9144,-0.17286 1.26224,-0.450144 -0.35066,0.613479 -1.00365,1.031521 -1.76072,1.031521"
         style="fill:#c6c8c6;fill-opacity:1;fill-rule:nonzero;stroke:none;stroke-width:0.03527778"
         id="path200"
         inkscape:connector-curvature="0" />
      <path
         d="m 42.096268,63.085201 h 2.61161 V 62.48301 h -2.61161 v 0.602191"
         style="fill:#50c6e4;fill-opacity:1;fill-rule:nonzero;stroke:none;stroke-width:0.03527778"
         id="path202"
         inkscape:connector-curvature="0" />
      <path
         d="m 37.056488,58.859983 c 0.12488,0.0011 0.24941,0.0011 0.37394,0 v -6.929615 h -0.37394 v 6.929615"
         style="fill:#50c6e4;fill-opacity:1;fill-rule:nonzero;stroke:none;stroke-width:0.03527778"
         id="path204"
         inkscape:connector-curvature="0" />
      <path
         d="m 37.170788,58.862803 c 0.0483,0 0.097,0 0.14534,0 v -7.195608 h -0.14534 v 7.195608"
         style="fill:#85d7e9;fill-opacity:1;fill-rule:nonzero;stroke:none;stroke-width:0.03527778"
         id="path206"
         inkscape:connector-curvature="0" />
    </g>
  </g>
</svg>
