<?xml version="1.0" encoding="UTF-8" standalone="no"?>
<!-- Created with Inkscape (http://www.inkscape.org/) -->

<svg
   xmlns:dc="http://purl.org/dc/elements/1.1/"
   xmlns:cc="http://creativecommons.org/ns#"
   xmlns:rdf="http://www.w3.org/1999/02/22-rdf-syntax-ns#"
   xmlns:svg="http://www.w3.org/2000/svg"
   xmlns="http://www.w3.org/2000/svg"
   xmlns:sodipodi="http://sodipodi.sourceforge.net/DTD/sodipodi-0.dtd"
   xmlns:inkscape="http://www.inkscape.org/namespaces/inkscape"
   viewBox="0 0 92.604164 105.83333"
   preserveAspectRatio="xMidYMid meet"
   version="1.1"
   id="svg7976"
   inkscape:version="0.92.1 r15371"
   sodipodi:docname="robo-2.svg">
  <defs
         id="defs7970" />
  <sodipodi:namedview
         id="base"
         pagecolor="#ffffff"
         bordercolor="#666666"
         borderopacity="1.0"
         inkscape:pageopacity="0.0"
         inkscape:pageshadow="2"
         inkscape:zoom="0.7"
         inkscape:cx="-54.070094"
         inkscape:cy="248.39291"
         inkscape:document-units="mm"
         inkscape:current-layer="g9029"
         showgrid="false"
         units="px"
         inkscape:window-width="1360"
         inkscape:window-height="748"
         inkscape:window-x="0"
         inkscape:window-y="0"
         inkscape:window-maximized="1" />
  <metadata
         id="metadata7973">
        <rdf:RDF>
          <cc:Work
                 rdf:about="">
                <dc:format>image/svg+xml</dc:format>
                <dc:type
                   rdf:resource="http://purl.org/dc/dcmitype/StillImage" />
                <dc:title />
          </cc:Work>
        </rdf:RDF>
  </metadata>
  <g
         inkscape:label="Camada 1"
         inkscape:groupmode="layer"
         id="layer1"
         transform="translate(0,-191.16665)">
        <g
           id="g9029"
           transform="translate(10.256819,-2.4054258)">
          <g
                 id="g4680"
                 transform="translate(0,-16.040984)">
                <path
                   inkscape:connector-curvature="0"
                   id="path16"
                   style="fill:#65839b;fill-opacity:1;fill-rule:nonzero;stroke:none;stroke-width:0.05820367"
                   d="M 67.012954,324.15204 H 12.362046 c -1.867765,0 -3.3816344,-1.51387 -3.3816344,-3.38163 0,-1.86775 1.5138694,-3.38163 3.3816344,-3.38163 h 16.57 c 0.116976,1.24672 0.191484,1.98765 0.191484,1.98765 h 7.629928 l 0.34106,-1.98765 h 5.838997 l 0.341078,1.98765 h 7.629334 c 0,0 0.07507,-0.74093 0.192077,-1.98765 h 15.91695 c 1.867749,0 3.381634,1.51388 3.381634,3.38163 0,1.86776 -1.513885,3.38163 -3.381634,3.38163" />
                <path
                   inkscape:connector-curvature="0"
                   id="path18"
                   style="fill:#dddedb;fill-opacity:1;fill-rule:nonzero;stroke:none;stroke-width:0.05820367"
                   d="m 47.227197,264.6778 c 0,1.64018 1.329958,2.97013 2.970141,2.97013 1.640166,0 2.970125,-1.32995 2.970125,-2.97013 0,-1.64076 -1.329959,-2.97014 -2.970125,-2.97014 -1.640183,0 -2.970141,1.32938 -2.970141,2.97014" />
                <path
                   inkscape:connector-curvature="0"
                   id="path20"
                   style="fill:#c3c5c2;fill-opacity:1;fill-rule:nonzero;stroke:none;stroke-width:0.05820367"
                   d="m 50.690318,264.19645 c -0.380063,0 -0.753742,-0.0274 -1.081422,-0.0629 -0.0012,-0.001 -0.0016,-0.002 -0.0033,-0.003 -0.436538,-0.0477 -0.793899,-0.11001 -0.969099,-0.1426 -0.2881,-0.26191 -0.591923,-0.50812 -0.908549,-0.73511 0.407418,0.06 0.965602,0.12222 1.537743,0.12222 0.552342,0 1.116927,-0.0582 1.570327,-0.23223 0.480178,-0.1845 0.914967,-0.45108 1.322963,-0.67982 0.357378,0.31721 0.640825,0.71591 0.814853,1.16873 -0.225817,0.12222 -0.460973,0.23864 -0.707744,0.33351 -0.345152,0.1327 -0.757239,0.19789 -1.179803,0.22117 l -5.61e-4,-4.3e-4 h -5.61e-4 c -0.131495,0.007 -0.263666,0.0104 -0.39521,0.0104" />
                <path
                   inkscape:connector-curvature="0"
                   id="path22"
                   style="fill:#333436;fill-opacity:1;fill-rule:nonzero;stroke:none;stroke-width:0.05820367"
                   d="m 59.766009,304.79409 c 0.406857,0.0844 0.804971,-0.17636 0.889361,-0.5832 l 0.714162,-3.43518 c 0.08447,-0.40685 -0.176371,-0.80496 -0.583212,-0.88935 -0.406263,-0.0844 -0.804376,0.17635 -0.888767,0.5832 l -0.714739,3.43518 c -0.08447,0.40684 0.176932,0.80495 0.583195,0.88935" />
                <path
                   inkscape:connector-curvature="0"
                   id="path24"
                   style="fill:#333436;fill-opacity:1;fill-rule:nonzero;stroke:none;stroke-width:0.05820367"
                   d="m 64.561993,302.626 c 0.400439,-0.11117 0.633846,-0.52616 0.522678,-0.92602 l -1.490606,-5.35066 c -0.111696,-0.40044 -0.526159,-0.63442 -0.926599,-0.52267 -0.399862,0.11117 -0.633846,0.52616 -0.522084,0.92602 l 1.49059,5.35066 c 0.111696,0.39986 0.526159,0.63384 0.926021,0.52267" />
                <path
                   inkscape:connector-curvature="0"
                   id="path26"
                   style="fill:#333436;fill-opacity:1;fill-rule:nonzero;stroke:none;stroke-width:0.05820367"
                   d="m 62.4137,304.96462 v 0 c 0.414414,-0.0204 0.733944,-0.37366 0.713584,-0.78807 l -0.238636,-4.78551 c -0.02095,-0.41499 -0.373679,-0.73453 -0.78867,-0.71357 -0.414414,0.0204 -0.733944,0.37367 -0.713568,0.78807 l 0.23862,4.78551 c 0.02046,0.41499 0.373679,0.73453 0.78867,0.71357" />
                <path
                   inkscape:connector-curvature="0"
                   id="path28"
                   style="fill:#d3d5d2;fill-opacity:1;fill-rule:nonzero;stroke:none;stroke-width:0.05820367"
                   d="m 48.521072,263.96538 c 0,0 2.387507,0.52151 3.745398,0 1.35789,-0.5215 2.36365,-1.70944 3.368832,-0.79564 1.005181,0.9138 5.940265,12.42939 7.220167,18.64438 1.279307,6.2144 -5.027048,4.29543 -5.027048,4.29543 l -7.402345,-16.54206 -1.905004,-5.60211" />
                <path
                   inkscape:connector-curvature="0"
                   id="path30"
                   style="fill:#acaeac;fill-opacity:1;fill-rule:nonzero;stroke:none;stroke-width:0.05820367"
                   d="m 49.608896,264.13359 c -0.440019,-0.0477 -0.796226,-0.11059 -0.970831,-0.14434 -5.78e-4,-4.4e-4 -5.78e-4,-4.4e-4 -0.0012,-0.001 0.175199,0.0326 0.53256,0.0949 0.969099,0.1426 5.61e-4,10e-4 0.0017,0.002 0.0033,0.003" />
                <path
                   inkscape:connector-curvature="0"
                   id="path32"
                   style="fill:#b8bab8;fill-opacity:1;fill-rule:nonzero;stroke:none;stroke-width:0.05820367"
                   d="m 50.692067,264.19704 c -0.38008,0 -0.754897,-0.0268 -1.082593,-0.0629 -5.61e-4,0 -5.61e-4,0 -5.61e-4,-4.4e-4 0.32768,0.0355 0.701342,0.0629 1.081422,0.0629 0.131494,0 0.263665,-0.003 0.395193,-0.0106 h 5.77e-4 l 5.61e-4,4.4e-4 c -0.130999,0.008 -0.263071,0.0104 -0.394615,0.0104" />
                <path
                   inkscape:connector-curvature="0"
                   id="path34"
                   style="fill:#c6c8c6;fill-opacity:1;fill-rule:nonzero;stroke:none;stroke-width:0.05820367"
                   d="m 56.809265,283.83204 -4.495642,-10.04712 v 0 l 0.831731,1.85961 c 0.03382,-2.0866 -0.146673,-4.1732 -0.577387,-6.22139 -0.437694,-2.08427 -1.498163,-3.90488 -2.958493,-5.28896 0.327696,0.0361 0.702513,0.0629 1.082593,0.0629 0.131495,0 0.263666,-0.003 0.394616,-0.0104 0.0495,0.0838 6.0171,10.16003 7.790559,18.39818 -0.491826,0.15715 -1.026135,0.34224 -1.574403,0.5541 -0.220587,0.0861 -0.380657,0.33234 -0.493574,0.6932" />
                <path
                   inkscape:connector-curvature="0"
                   id="path36"
                   style="fill:#a2a5a4;fill-opacity:1;fill-rule:nonzero;stroke:none;stroke-width:0.05820367"
                   d="m 49.609474,264.13418 c -0.44002,-0.0477 -0.796226,-0.11117 -0.971409,-0.14493 v 0 c 0.174605,0.0337 0.530812,0.0966 0.970831,0.14435 0,4.4e-4 0,4.4e-4 5.61e-4,4.4e-4" />
                <path
                   inkscape:connector-curvature="0"
                   id="path38"
                   style="fill:#afb1af;fill-opacity:1;fill-rule:nonzero;stroke:none;stroke-width:0.05820367"
                   d="m 53.145354,275.64453 -0.831731,-1.85961 c -0.07391,-1.46382 -0.261916,-2.9224 -0.564585,-4.36178 -0.4534,-2.15702 -1.570327,-4.03351 -3.110973,-5.43389 0.175183,0.0337 0.531389,0.0972 0.971409,0.14492 1.46033,1.38409 2.520799,3.20469 2.958493,5.28897 0.430714,2.04819 0.611144,4.13479 0.577387,6.22139" />
                <path
                   inkscape:connector-curvature="0"
                   id="path40"
                   style="fill:#babcba;fill-opacity:1;fill-rule:nonzero;stroke:none;stroke-width:0.05820367"
                   d="m 57.228925,284.76854 -0.41966,-0.9365 v 0 l 0.41966,0.9365 v 0 m 1.828169,-1.27117 c -0.05362,-0.30149 -0.114006,-0.6059 -0.179852,-0.91263 1.413194,-0.45283 2.470165,-0.67924 2.470165,-0.67924 0,0 0.474354,-0.98422 1.082,-1.85611 0.09833,0.3725 0.192077,0.73744 0.275313,1.08898 -0.518603,0.7939 -0.900415,1.58955 -0.900415,1.58955 0,0 -1.197243,0.25668 -2.747211,0.76945" />
                <path
                   inkscape:connector-curvature="0"
                   id="path42"
                   style="fill:#afb1af;fill-opacity:1;fill-rule:nonzero;stroke:none;stroke-width:0.05820367"
                   d="m 57.228925,284.76854 -0.41966,-0.9365 c 0.112851,-0.36086 0.272987,-0.60707 0.493574,-0.6932 0.548268,-0.21186 1.082577,-0.39695 1.574403,-0.5541 0.06583,0.30673 0.126215,0.61114 0.179852,0.91263 -0.405092,0.13445 -0.834635,0.28578 -1.272906,0.45515 -4.45e-4,0 -0.0013,0 -0.0013,4.4e-4 -0.0082,0.003 -0.01485,0.006 -0.02277,0.009 -0.245038,0.0949 -0.418489,0.37833 -0.531389,0.80671" />
                <path
                   inkscape:connector-curvature="0"
                   id="path44"
                   style="fill:#dddedb;fill-opacity:1;fill-rule:nonzero;stroke:none;stroke-width:0.05820367"
                   d="m 61.804305,282.72792 c 0,0 1.644836,-3.42703 2.741981,-3.15289 1.096551,0.27413 1.850294,7.40292 1.507468,11.92651 -0.342233,4.52417 -1.71352,8.15666 -2.604613,8.77362 -0.891094,0.61696 -3.152897,0.48018 -3.838533,0 -0.685058,-0.4796 -3.975306,-15.49091 -1.850293,-16.31333 2.124435,-0.82299 4.04399,-1.23391 4.04399,-1.23391" />
                <path
                   inkscape:connector-curvature="0"
                   id="path46"
                   style="fill:#303133;fill-opacity:1;fill-rule:nonzero;stroke:none;stroke-width:0.05820367"
                   d="m 63.169191,300.42765 v 0 c 0.103612,-0.0448 0.197885,-0.0955 0.27995,-0.1525 0.0016,-4.3e-4 0.0033,-0.002 0.0049,-0.003 -0.0013,10e-4 -0.0033,0.002 -0.0049,0.003 -0.082,0.057 -0.176355,0.10767 -0.27995,0.1525" />
                <path
                   inkscape:connector-curvature="0"
                   id="path48"
                   style="fill:#303133;fill-opacity:1;fill-rule:nonzero;stroke:none;stroke-width:0.05820367"
                   d="m 63.454965,300.27167 c 0.0013,-10e-4 0.0016,-0.002 0.0033,-0.003 -0.0016,0.001 -0.0033,0.002 -0.0033,0.003 m 0.0049,-0.004 c 4.29e-4,-4.4e-4 0.0013,-0.001 0.0017,-0.002 -4.45e-4,4.4e-4 -0.0013,10e-4 -0.0017,0.002" />
                <path
                   inkscape:connector-curvature="0"
                   id="path50"
                   style="fill:#a6a8a7;fill-opacity:1;fill-rule:nonzero;stroke:none;stroke-width:0.05820367"
                   d="m 57.783017,283.9531 c 0,-4.3e-4 4.29e-4,-4.3e-4 0.0013,-4.3e-4 -4.29e-4,0 -0.0013,0 -0.0013,4.3e-4" />
                <path
                   inkscape:connector-curvature="0"
                   id="path52"
                   style="fill:#d0d2cf;fill-opacity:1;fill-rule:nonzero;stroke:none;stroke-width:0.05820367"
                   d="m 61.594772,300.6884 c -0.07094,0 -0.141394,-10e-4 -0.21186,-0.003 -0.561664,-0.0192 -1.102953,-0.11175 -1.47546,-0.25726 -0.116975,-0.046 -0.217106,-0.0966 -0.296844,-0.1525 -0.522084,-0.36552 -2.555133,-9.16242 -2.555727,-13.69707 0,-1.419 0.199056,-2.4201 0.705434,-2.61625 0.0082,-0.003 0.01485,-0.006 0.02277,-0.009 0,-4.3e-4 4.45e-4,-4.3e-4 0.0013,-4.3e-4 0.496461,-0.19149 0.979559,-0.35912 1.43121,-0.50579 0.04009,1.62272 0.339922,11.7356 1.560445,14.36117 0.555263,1.19375 1.402717,1.54123 2.20127,1.54123 0.474947,0 0.932423,-0.12282 1.301432,-0.26366 -0.286945,0.5896 -0.569237,1.00226 -0.816008,1.18037 -4.46e-4,4.3e-4 -0.0013,10e-4 -0.0017,0.002 -4.45e-4,0 -0.0013,4.4e-4 -0.0016,10e-4 -0.0016,4.4e-4 -0.0033,0.002 -0.0033,0.003 -4.45e-4,0 -4.45e-4,0 -0.0013,4.4e-4 -0.0013,10e-4 -0.0033,0.002 -0.005,0.003 -0.082,0.057 -0.176354,0.10767 -0.27995,0.15249 -0.421409,0.18102 -0.99878,0.26075 -1.574419,0.26075" />
                <path
                   inkscape:connector-curvature="0"
                   id="path54"
                   style="fill:#333436;fill-opacity:1;fill-rule:nonzero;stroke:none;stroke-width:0.05820367"
                   d="m 56.697519,301.38277 v 0 c 0.412071,0.2852 0.977811,0.18276 1.263601,-0.22932 l 1.953311,-2.81997 c 0.285774,-0.41208 0.18335,-0.97782 -0.229315,-1.2636 -0.412087,-0.2852 -0.977827,-0.18276 -1.263023,0.22932 l -1.953905,2.81997 c -0.285196,0.41208 -0.182756,0.97782 0.229331,1.2636" />
                <path
                   inkscape:connector-curvature="0"
                   id="path56"
                   style="fill:#50c6e4;fill-opacity:1;fill-rule:nonzero;stroke:none;stroke-width:0.05820367"
                   d="m 64.278545,290.23794 h 1.838646 c -0.0132,0.43594 -0.03267,0.86258 -0.06286,1.2636 -0.0523,0.68738 -0.13034,1.3509 -0.224662,1.9894 h -1.551124 v -3.253" />
                <path
                   inkscape:connector-curvature="0"
                   id="path58"
                   style="fill:#50c6e4;fill-opacity:1;fill-rule:nonzero;stroke:none;stroke-width:0.05820367"
                   d="m 65.745278,294.03805 c -0.05758,0.34166 -0.121101,0.67167 -0.187409,0.99354 h -1.279324 v -0.99354 h 1.466733" />
                <path
                   inkscape:connector-curvature="0"
                   id="path60"
                   style="fill:#d3d5d2;fill-opacity:1;fill-rule:nonzero;stroke:none;stroke-width:0.05820367"
                   d="M 40.020427,286.65783 H 28.872684 l 0.477851,3.83853 7.402923,8.72997 c 2.023727,1.15941 4.510193,1.15941 6.534515,0 l 7.402923,-8.72997 0.477274,-3.83853 H 40.020427" />
                <path
                   inkscape:connector-curvature="0"
                   id="path62"
                   style="fill:#babcba;fill-opacity:1;fill-rule:nonzero;stroke:none;stroke-width:0.05820367"
                   d="m 40.195032,300.08367 c -0.06055,0 -0.12044,-0.008 -0.181007,-0.008 -0.06055,0 -0.12044,0.008 -0.181023,0.008 -0.0066,0 -0.0132,0 -0.0198,-4.4e-4 l 0.0099,-0.014 c -0.385888,-0.0111 -0.771776,-0.0536 -1.151839,-0.12922 -0.510453,-0.44235 -1.178055,-0.71358 -1.9184,-0.71358 v 0 c 0,0 -1.828169,-6.22779 -2.741981,-7.15905 -0.707744,-0.72114 -2.730333,-2.28915 -4.455484,-2.28915 -0.09899,0 -0.19673,0.005 -0.293346,0.0157 l -0.03613,-0.2916 c 0.378909,-0.25027 0.804954,-0.35446 1.250798,-0.35446 1.723402,0 3.740745,1.55928 4.447928,2.27984 0.913795,0.93126 2.741964,7.15905 2.741964,7.15905 0.987726,0 1.819458,0.50055 2.346772,1.2281 0.52733,-0.72755 1.359062,-1.2281 2.346771,-1.2281 0,0 1.827608,-6.22779 2.741981,-7.15905 0.706589,-0.72056 2.723932,-2.27984 4.447928,-2.27984 0.445844,0 0.871889,0.10419 1.250798,0.35446 l -0.03663,0.2916 c -0.09602,-0.0104 -0.193826,-0.0157 -0.292769,-0.0157 -1.725745,0 -3.74774,1.56801 -4.455483,2.28915 -0.0012,10e-4 -0.0016,0.002 -0.0033,0.003 -0.889939,0.91496 -2.639541,6.81972 -2.735002,7.14217 -0.0017,0.009 -0.0033,0.014 -0.0033,0.014 v 0 0 c -0.740923,0 -1.407947,0.27122 -1.918384,0.71358 -0.38008,0.0757 -0.765967,0.11814 -1.152432,0.12921 l 0.01155,0.014 c -0.0066,4.3e-4 -0.0132,4.3e-4 -0.0198,4.3e-4" />
                <path
                   inkscape:connector-curvature="0"
                   id="path64"
                   style="fill:#dddedb;fill-opacity:1;fill-rule:nonzero;stroke:none;stroke-width:0.05820367"
                   d="m 32.732153,264.6778 c 0,1.64018 -1.329942,2.97013 -2.970702,2.97013 -1.640183,0 -2.970141,-1.32995 -2.970141,-2.97013 0,-1.64076 1.329958,-2.97014 2.970141,-2.97014 1.64076,0 2.970702,1.32938 2.970702,2.97014" />
                <path
                   inkscape:connector-curvature="0"
                   id="path66"
                   style="fill:#c3c5c2;fill-opacity:1;fill-rule:nonzero;stroke:none;stroke-width:0.05820367"
                   d="m 29.268454,264.19645 c -0.131494,0 -0.263649,-0.003 -0.395193,-0.0104 h -5.77e-4 c 0,0 0,4.4e-4 -5.61e-4,4.4e-4 -0.422564,-0.0233 -0.834058,-0.0885 -1.179788,-0.22118 -0.246787,-0.0949 -0.481926,-0.21128 -0.707182,-0.33351 0.174044,-0.45282 0.456914,-0.85151 0.814853,-1.16872 0.407435,0.22874 0.842208,0.49531 1.322979,0.67981 0.452823,0.17403 1.017391,0.23224 1.56975,0.23224 0.622198,0 1.228673,-0.0739 1.641932,-0.13795 -0.316643,0.22583 -0.619872,0.4697 -0.908566,0.73046 -0.07507,0.0152 -0.508126,0.10069 -1.072694,0.16297 -0.0012,0.001 -0.0017,0.002 -0.0033,0.003 -0.32768,0.0355 -0.701936,0.0629 -1.081999,0.0629" />
                <path
                   inkscape:connector-curvature="0"
                   id="path76"
                   style="fill:#acaeac;fill-opacity:1;fill-rule:nonzero;stroke:none;stroke-width:0.05820367"
                   d="m 30.35047,264.13359 c 5.61e-4,-0.001 0.0016,-0.002 0.0033,-0.003 0.564568,-0.0623 0.997609,-0.14784 1.072694,-0.16297 v 0 c -0.07507,0.0163 -0.505206,0.10417 -1.075614,0.16588" />
                <path
                   inkscape:connector-curvature="0"
                   id="path78"
                   style="fill:#b8bab8;fill-opacity:1;fill-rule:nonzero;stroke:none;stroke-width:0.05820367"
                   d="m 29.266722,264.19704 c -0.131,0 -0.263088,-0.003 -0.394632,-0.0104 5.77e-4,0 5.77e-4,-4.4e-4 5.77e-4,-4.4e-4 h 5.61e-4 c 0.131495,0.007 0.263666,0.0106 0.39521,0.0106 0.380063,0 0.754319,-0.0274 1.081999,-0.0629 -5.61e-4,4.4e-4 -5.61e-4,4.4e-4 -0.0012,4.4e-4 -0.327697,0.0361 -0.70253,0.0629 -1.082594,0.0629" />
                <g
                   id="g8817"
                   transform="matrix(1.6498676,0,0,1.6498676,-21.426348,190.94936)">
                  <path
                         d="m 31.761943,47.941186 c 0,0 -1.020613,-1.07348 -1.17708,-1.941127 -0.15647,-0.867643 0.1433,-1.761934 -0.64637,-1.996006 -0.789487,-0.233763 -8.308613,0.827566 -11.93169,2.11774 -3.622962,1.289684 -0.646502,3.954991 -0.646502,3.954991 l 10.899749,-1.362015 3.501898,-0.773584"
                         style="fill:#d3d5d2;fill-opacity:1;fill-rule:nonzero;stroke:none;stroke-width:0.03527778"
                         id="path74"
                         inkscape:connector-curvature="0" />
                  <path
                         d="m 18.860943,49.889215 c 0.15153,-0.171923 0.229018,-0.331955 0.204154,-0.47365 -0.06251,-0.350739 -0.134498,-0.685825 -0.207449,-0.989807 4.826919,-1.669886 11.924374,-1.744036 11.983356,-1.744742 0.0374,0.07054 0.07748,0.139914 0.118634,0.207791 0.119451,0.196971 0.251114,0.382828 0.372803,0.541308 -1.176267,-0.321862 -0.247886,0.502829 -1.465835,0.930717 -1.196685,0.420769 -1.606556,0.353937 -5.610834,0.854146 l 1.362599,-0.170288 v 0 l -6.757434,0.844526"
                         style="fill:#c6c8c6;fill-opacity:1;fill-rule:nonzero;stroke:none;stroke-width:0.03527778"
                         id="path80"
                         inkscape:connector-curvature="0"
                         sodipodi:nodetypes="ccccccccccc" />
                </g>
                <path
                   inkscape:connector-curvature="0"
                   id="path82"
                   style="fill:#a2a5a4;fill-opacity:1;fill-rule:nonzero;stroke:none;stroke-width:0.05820367"
                   d="m 30.349299,264.13418 c 5.77e-4,0 5.77e-4,0 0.0012,-4.4e-4 0.570392,-0.0617 1.000512,-0.14958 1.075598,-0.16588 v 0 c -0.07507,0.0163 -0.505784,0.10417 -1.07677,0.16646" />
                <path
                   sodipodi:nodetypes="ccccccc"
                   inkscape:connector-curvature="0"
                   id="path84"
                   style="fill:#afb1af;fill-opacity:1;fill-rule:nonzero;stroke:none;stroke-width:0.05820367"
                   d="m 27.404023,274.17987 c -0.151937,-2.13384 -0.44342,-2.70854 -0.0132,-4.75673 0.438271,-2.08427 1.498162,-3.90488 2.958493,-5.28896 0.570986,-0.0623 1.001684,-0.15018 1.07677,-0.16647 -1.552295,1.40271 -2.678528,3.28734 -3.13427,5.45543 -0.2881,1.37128 -0.472605,2.75944 -0.552937,4.15342 l -0.02773,2.44595" />
                <path
                   inkscape:connector-curvature="0"
                   id="path86"
                   style="fill:#65839b;fill-opacity:1;fill-rule:nonzero;stroke:none;stroke-width:0.05820367"
                   d="m 50.978418,288.18451 0.189752,-1.52668 -0.189752,1.52668" />
                <path
                   inkscape:connector-curvature="0"
                   id="path88"
                   style="fill:#babcba;fill-opacity:1;fill-rule:nonzero;stroke:none;stroke-width:0.05820367"
                   d="m 40.020427,289.56045 c -2.211747,0 -4.423477,-0.19731 -6.609023,-0.59135 l -4.348985,-0.78459 -0.189735,-1.52668 4.53872,0.81834 c 2.185546,0.39462 4.397276,0.59135 6.609023,0.59135 2.21173,0 4.424054,-0.19673 6.609023,-0.59135 l 4.53872,-0.81834 -0.189752,1.52668 -4.348968,0.78459 c -2.184969,0.39404 -4.397293,0.59135 -6.609023,0.59135" />
                <path
                   inkscape:connector-curvature="0"
                   id="path90"
                   style="fill:#dddedb;fill-opacity:1;fill-rule:nonzero;stroke:none;stroke-width:0.05820367"
                   d="m 51.749038,269.42314 c -0.989458,-4.70926 -5.143445,-8.08099 -9.956307,-8.08099 h -1.772304 -1.772305 c -4.812284,0 -8.966271,3.37173 -9.956324,8.08099 -0.630348,3.0004 -0.764796,6.08345 -0.397519,9.1275 l 0.978405,8.10719 4.53872,0.81834 c 4.370499,0.78866 8.84753,0.78866 13.218046,0 l 4.53872,-0.81834 0.978404,-8.10719 c 0.367261,-3.04405 0.232813,-6.1271 -0.397536,-9.1275" />
                <path
                   inkscape:connector-curvature="0"
                   id="path92"
                   style="fill:#c3c5c2;fill-opacity:1;fill-rule:nonzero;stroke:none;stroke-width:0.05820367"
                   d="m 40.103662,265.88436 c -2.168091,0 -4.296601,-0.60416 -6.197529,-1.65124 l -0.946397,-0.5215 c -0.30615,-0.0745 -0.603571,-0.16821 -0.90157,-0.26017 0.999357,-0.76771 2.141313,-1.35266 3.372313,-1.71003 0.472621,2.09941 2.347943,3.66742 4.589948,3.66742 2.242005,0 4.117904,-1.56801 4.589931,-3.66742 1.231593,0.35737 2.372972,0.94232 3.372907,1.71003 -0.298576,0.092 -0.595421,0.18566 -0.902164,0.26017 l -1.001684,0.55177 c -1.689069,0.93067 -3.558566,1.54647 -5.486272,1.61166 -0.101302,0.003 -0.20196,0.006 -0.303245,0.008 -0.06171,10e-4 -0.123906,0.002 -0.186238,0.002" />
                <path
                   inkscape:connector-curvature="0"
                   id="path94"
                   style="fill:#d3d5d2;fill-opacity:1;fill-rule:nonzero;stroke:none;stroke-width:0.05820367"
                   d="m 40.020427,265.40884 c -2.598212,0 -4.704598,-2.10639 -4.704598,-4.70461 v -4.89143 h 9.409195 v 4.89143 c 0,2.59822 -2.106386,4.70461 -4.704597,4.70461" />
                <path
                   inkscape:connector-curvature="0"
                   id="path96"
                   style="fill:#babcba;fill-opacity:1;fill-rule:nonzero;stroke:none;stroke-width:0.05820367"
                   d="m 40.020427,259.48079 c -1.33636,0 -2.672126,-0.15832 -3.979976,-0.47611 l -0.724622,-0.17577 v -1.37069 l 0.724622,0.17577 c 1.30785,0.31721 2.643616,0.47611 3.979976,0.47611 1.336359,0 2.672703,-0.1589 3.980536,-0.47611 l 0.724061,-0.17577 v 1.37069 l -0.724061,0.17577 c -1.307833,0.3178 -2.644177,0.47611 -3.980536,0.47611" />
                <path
                   inkscape:connector-curvature="0"
                   id="path98"
                   style="fill:#dddedb;fill-opacity:1;fill-rule:nonzero;stroke:none;stroke-width:0.05820367"
                   d="m 47.081101,256.88607 -3.080138,0.74792 c -2.615667,0.635 -5.345422,0.635 -7.960512,0 l -3.080715,-0.74792 C 26.05504,255.21039 21.193293,249.028 21.193293,241.92249 V 228.4402 c 0,-10.3975 8.429635,-18.82714 18.827134,-18.82714 10.398076,0 18.827134,8.42964 18.827134,18.82714 v 13.48229 c 0,7.10551 -4.861748,13.2879 -11.76646,14.96358" />
                <path
                   inkscape:connector-curvature="0"
                   id="path100"
                   style="fill:#6b8aa5;fill-opacity:1;fill-rule:nonzero;stroke:none;stroke-width:0.05820367"
                   d="m 21.19387,241.99001 c 0,-5.7e-4 0,-5.7e-4 0,-5.7e-4 0,5.7e-4 0,0 0,5.7e-4 m 0,-0.0122 c -5.77e-4,-0.003 -5.77e-4,-0.006 -5.77e-4,-0.009 0,0.003 0,0.006 5.77e-4,0.009 m -5.77e-4,-0.0174 c 0,-0.004 0,-0.008 0,-0.0122 0,0.004 0,0.008 0,0.0122 m 0,-0.0186 c 0,-0.006 0,-0.0129 0,-0.0186 0,0.006 0,0.0117 0,0.0186" />
                <path
                   inkscape:connector-curvature="0"
                   id="path102"
                   style="fill:#d0d2cf;fill-opacity:1;fill-rule:nonzero;stroke:none;stroke-width:0.05820367"
                   d="m 23.477204,249.82771 c -0.02854,0 -0.05709,0 -0.08563,-5.6e-4 -1.385839,-2.31185 -2.185546,-4.99679 -2.197772,-7.83712 0,-5.7e-4 0,0 0,-5.7e-4 0,-0.004 0,-0.008 0,-0.0117 -5.77e-4,-0.003 -5.77e-4,-0.006 -5.77e-4,-0.009 0,-0.003 0,-0.005 0,-0.008 0,-0.004 0,-0.008 0,-0.0122 0,-0.002 0,-0.004 0,-0.006 0,-0.007 0,-0.0129 0,-0.0192 0,0 0,0 0,0 v -6.55664 c 0.143208,-0.15425 0.281137,-0.31081 0.431885,-0.46214 2.718685,-2.71869 6.049685,-4.18251 8.892935,-4.18251 1.719327,0 3.261145,0.53605 4.379244,1.65415 2.966643,2.96664 1.83457,8.90923 -2.528373,13.27218 -2.718685,2.71869 -6.04853,4.18018 -8.89178,4.18018" />
                <path
                   inkscape:connector-curvature="0"
                   id="path104"
                   style="fill:#50c6e4;fill-opacity:1;fill-rule:nonzero;stroke:none;stroke-width:0.05820367"
                   d="m 35.450854,236.8029 c 0,2.90203 -2.352595,5.25521 -5.255207,5.25521 -2.902035,0 -5.255208,-2.35318 -5.255208,-5.25521 0,-2.90262 2.353173,-5.25521 5.255208,-5.25521 2.902612,0 5.255207,2.35259 5.255207,5.25521" />
                <path
                   inkscape:connector-curvature="0"
                   id="path106"
                   style="fill:#85d7e9;fill-opacity:1;fill-rule:nonzero;stroke:none;stroke-width:0.05820367"
                   d="m 34.080161,236.8029 c 0,2.14539 -1.739126,3.88451 -3.884514,3.88451 -2.144812,0 -3.883937,-1.73912 -3.883937,-3.88451 0,-2.14539 1.739125,-3.88451 3.883937,-3.88451 2.145388,0 3.884514,1.73912 3.884514,3.88451" />
                <path
                   inkscape:connector-curvature="0"
                   id="path108"
                   style="fill:#ffffff;fill-opacity:1;fill-rule:nonzero;stroke:none;stroke-width:0.05820367"
                   d="m 33.497543,236.8029 c 0,1.82352 -1.47838,3.30131 -3.301896,3.30131 -1.823517,0 -3.301319,-1.47779 -3.301319,-3.30131 0,-1.82352 1.477802,-3.30189 3.301319,-3.30189 1.823516,0 3.301896,1.47837 3.301896,3.30189" />
                <path
                   inkscape:connector-curvature="0"
                   id="path110"
                   style="fill:#6b8aa5;fill-opacity:1;fill-rule:nonzero;stroke:none;stroke-width:0.05820367"
                   d="m 58.847561,241.99117 c 0,-5.6e-4 0,-0.001 0,-0.002 0,5.7e-4 0,0.002 0,0.002 m 0,-0.0134 c 0,-0.003 0,-0.006 0,-0.009 0,0.003 0,0.006 0,0.009 m 0,-0.0175 c 0,-0.004 0,-0.008 0,-0.0122 0,0.004 0,0.008 0,0.0122 m 0,-0.0186 c 0,-0.007 0,-0.0129 0,-0.0192 0,0.006 0,0.0129 0,0.0192" />
                <path
                   inkscape:connector-curvature="0"
                   id="path112"
                   style="fill:#d0d2cf;fill-opacity:1;fill-rule:nonzero;stroke:none;stroke-width:0.05820367"
                   d="m 56.563649,249.82771 c -2.842672,0 -6.173079,-1.46149 -8.89178,-4.18018 -4.362943,-4.36295 -5.494999,-10.30554 -2.528356,-13.27218 1.118082,-1.11809 2.6599,-1.65415 4.379821,-1.65415 2.842672,0 6.173656,1.46382 8.892357,4.18252 0.151293,0.15132 0.288694,0.30789 0.43187,0.46213 v 6.55664 c 0,0 0,0 0,5.7e-4 0,0.006 0,0.0117 0,0.0186 0,0.002 0,0.004 0,0.006 0,0.004 0,0.008 0,0.0122 0,0.003 0,0.006 0,0.009 0,0.002 0,0.006 0,0.009 0,0.003 0,0.008 0,0.0111 0,0.001 0,0.002 0,0.002 -0.0132,2.84033 -0.812527,5.52411 -2.19835,7.83595 -0.02854,5.7e-4 -0.05709,5.7e-4 -0.08563,5.7e-4" />
                <path
                   inkscape:connector-curvature="0"
                   id="path114"
                   style="fill:#50c6e4;fill-opacity:1;fill-rule:nonzero;stroke:none;stroke-width:0.05820367"
                   d="m 44.589999,236.8029 c 0,2.90203 2.353173,5.25521 5.255208,5.25521 2.902612,0 5.255208,-2.35318 5.255208,-5.25521 0,-2.90262 -2.352596,-5.25521 -5.255208,-5.25521 -2.902035,0 -5.255208,2.35259 -5.255208,5.25521" />
                <path
                   inkscape:connector-curvature="0"
                   id="path116"
                   style="fill:#85d7e9;fill-opacity:1;fill-rule:nonzero;stroke:none;stroke-width:0.05820367"
                   d="m 45.96127,236.8029 c 0,2.14539 1.738548,3.88451 3.883937,3.88451 2.145389,0 3.884514,-1.73912 3.884514,-3.88451 0,-2.14539 -1.739125,-3.88451 -3.884514,-3.88451 -2.145389,0 -3.883937,1.73912 -3.883937,3.88451" />
                <path
                   inkscape:connector-curvature="0"
                   id="path118"
                   style="fill:#c3c5c2;fill-opacity:1;fill-rule:nonzero;stroke:none;stroke-width:0.05820367"
                   d="m 40.020427,288.05937 c -0.181024,0 -0.362031,-10e-4 -0.543038,-0.004 v -10.1577 c -2.074972,-0.2689 -3.683709,-2.02374 -3.683709,-4.17204 0,-2.33455 1.892201,-4.22675 4.226747,-4.22675 2.334546,0 4.226746,1.8922 4.226746,4.22675 0,2.1483 -1.608175,3.90314 -3.683131,4.17204 v 10.15756 c -0.181585,0.003 -0.362608,0.004 -0.543615,0.004" />
                <path
                   inkscape:connector-curvature="0"
                   id="path120"
                   style="fill:#50c6e4;fill-opacity:1;fill-rule:nonzero;stroke:none;stroke-width:0.05820367"
                   d="m 36.29656,273.72556 c 0,2.05691 1.666944,3.72445 3.723867,3.72445 2.056906,0 3.724444,-1.66754 3.724444,-3.72445 0,-2.05692 -1.667538,-3.72446 -3.724444,-3.72446 -2.056923,0 -3.723867,1.66754 -3.723867,3.72446" />
                <path
                   inkscape:connector-curvature="0"
                   id="path122"
                   style="fill:#85d7e9;fill-opacity:1;fill-rule:nonzero;stroke:none;stroke-width:0.05820367"
                   d="m 37.267969,273.72556 c 0,1.52028 1.232171,2.75303 2.752458,2.75303 1.52027,0 2.753035,-1.23275 2.753035,-2.75303 0,-1.52029 -1.232765,-2.75245 -2.753035,-2.75245 -1.520287,0 -2.752458,1.23216 -2.752458,2.75245" />
                <path
                   inkscape:connector-curvature="0"
                   id="path124"
                   style="fill:#ffffff;fill-opacity:1;fill-rule:nonzero;stroke:none;stroke-width:0.05820367"
                   d="m 38.167807,273.72556 c 0,1.0238 0.829388,1.8532 1.85262,1.8532 1.023215,0 1.853197,-0.8294 1.853197,-1.8532 0,-1.02322 -0.829982,-1.85263 -1.853197,-1.85263 -1.023232,0 -1.85262,0.82941 -1.85262,1.85263" />
                <path
                   inkscape:connector-curvature="0"
                   id="path126"
                   style="fill:#d0d2cf;fill-opacity:1;fill-rule:nonzero;stroke:none;stroke-width:0.05820367"
                   d="M 48.519324,226.97812 H 31.522107 c -1.762982,0 -3.197707,-1.43472 -3.197707,-3.19771 v -10.0768 c 0.357361,-0.28403 0.718814,-0.56224 1.096551,-0.82009 v 10.89689 c 0,1.15826 0.942322,2.10057 2.101156,2.10057 h 16.997217 c 1.158256,0 2.100562,-0.94231 2.100562,-2.10057 v -10.89689 c 0.377753,0.25785 0.739767,0.53606 1.097145,0.82009 v 10.0768 c 0,1.76299 -1.434725,3.19771 -3.197707,3.19771" />
                <g
                   id="g8929"
                   transform="rotate(-36.60848,-27.825289,264.00326)">
                  <path
                         d="m 2.4151743,270.10877 c -0.3965094,-0.12418 -0.8184432,0.0959 -0.9426288,0.49246 l -1.05016709,3.34778 c -0.12426802,0.3965 0.0959398,0.81844 0.49244589,0.94263 0.3965077,0.12419 0.8184416,-0.0959 0.9426453,-0.49244 l 1.0501489,-3.34779 c 0.1242681,-0.3965 -0.096517,-0.8185 -0.4924442,-0.94264"
                         style="fill:#333436;fill-opacity:1;fill-rule:nonzero;stroke:none;stroke-width:0.05820367"
                         id="path68"
                         inkscape:connector-curvature="0" />
                  <path
                         d="m -2.5716033,271.79226 c -0.4088917,0.0711 -0.6827268,0.46094 -0.6116224,0.86983 l 0.9550588,5.47184 c 0.071076,0.40947 0.4608823,0.68332 0.8698317,0.61163 0.40888995,-0.0711 0.68274323,-0.46095 0.61163723,-0.86983 l -0.95507373,-5.47184 c -0.071142,-0.4089 -0.46094,-0.68274 -0.8698316,-0.61163"
                         style="fill:#333436;fill-opacity:1;fill-rule:nonzero;stroke:none;stroke-width:0.05820367"
                         id="path70"
                         inkscape:connector-curvature="0" />
                  <path
                         d="m -0.20210967,269.67746 v 0 c -0.4149747,-0.0207 -0.76787148,0.29924 -0.78797677,0.7137 l -0.23548556,4.78566 c -0.020821,0.41496 0.29866394,0.7678 0.71369474,0.78797 0.4149747,0.0207 0.76787148,-0.29925 0.78797676,-0.7137 l 0.23548561,-4.78566 c 0.0206563,-0.41498 -0.29925629,-0.76786 -0.71369478,-0.78797"
                         style="fill:#333436;fill-opacity:1;fill-rule:nonzero;stroke:none;stroke-width:0.05820367"
                         id="path72"
                         inkscape:connector-curvature="0" />
                  <path
                         d="m 2.961292,290.28709 v 0 l 0.3244597,0.97333 v 0 L 2.961292,290.28709 m -1.9454414,1.08421 c -1.59303952,0.35707 -2.8098053,0.49417 -2.8098053,0.49417 0,0 -0.8410065,1.20268 -1.4355165,1.94144 0.3813163,0.18947 0.7636165,0.39221 0.7636165,0.39221 0.6908408,-0.80757 1.0452799,-1.4701 1.0452799,-1.4701 0,0 1.07418916,-0.12084 2.5257773,-0.43173 -0.035687,-0.31178 -0.065203,-0.62062 -0.089357,-0.92599"
                         style="fill:#babcba;fill-opacity:1;fill-rule:nonzero;stroke:none;stroke-width:0.05820367"
                         id="path128"
                         inkscape:connector-curvature="0"
                         sodipodi:nodetypes="cccccccccccc" />
                  <path
                         d="m 2.961292,290.28709 c -0.1552855,0.41506 -0.3553171,0.68004 -0.6085157,0.75024 -0.00858,0.002 -0.015344,0.004 -0.023527,0.006 -6.171e-4,3.8e-4 -0.00123,3.2e-4 -0.00165,2.7e-4 -0.4528655,0.12523 -0.895261,0.23337 -1.3116744,0.32712 0.024055,0.30537 0.053571,0.6142 0.089357,0.926 0.5043744,-0.10784 1.0543611,-0.23921 1.6208827,-0.39584 0.2286106,-0.0639 0.4116387,-0.2931 0.5596681,-0.64104 l -0.3244613,-0.97332"
                         style="fill:#afb1af;fill-opacity:1;fill-rule:nonzero;stroke:none;stroke-width:0.05820367"
                         id="path130"
                         inkscape:connector-curvature="0" />
                  <path
                         d="m -1.7939547,291.86547 c 0,0 -1.9754789,3.2477 -3.0395693,2.86652 -1.0646808,-0.38122 -1.1101726,-7.5496 -0.3219748,-12.01716 0.7882753,-4.46814 2.5112584,-7.94738 3.4589638,-8.47325 0.9477219,-0.52587 3.1849176,-0.16623 3.8197405,0.37936 0.6348789,0.54502 2.4248698,15.80795 0.2295708,16.41639 -2.19596222,0.60895 -4.146731,0.82814 -4.146731,0.82814"
                         style="fill:#dddedb;fill-opacity:1;fill-rule:nonzero;stroke:none;stroke-width:0.05820367"
                         id="path132"
                         inkscape:connector-curvature="0" />
                  <path
                         d="m -1.4022943,274.11756 c -0.1075384,0.0344 -0.2063506,0.0754 -0.2942407,0.12402 -0.00165,2.7e-4 -0.00346,10e-4 -0.00528,0.003 0.00181,-10e-4 0.00346,-0.002 0.00528,-0.003 0.087888,-0.0486 0.1867221,-0.0897 0.2942407,-0.12402 v 0"
                         style="fill:#303133;fill-opacity:1;fill-rule:nonzero;stroke:none;stroke-width:0.05820367"
                         id="path134"
                         inkscape:connector-curvature="0" />
                  <path
                         d="m -1.7020835,274.24454 c -0.00181,0.001 -0.00346,0.001 -0.00363,0.003 0.00121,-3.2e-4 0.00181,-0.002 0.00363,-0.003 m -0.00693,0.003 c -6.171e-4,3.7e-4 -0.00131,10e-4 -0.00181,0.002 6.022e-4,-3.8e-4 0.0013,-0.001 0.00181,-0.002"
                         style="fill:#303133;fill-opacity:1;fill-rule:nonzero;stroke:none;stroke-width:0.05820367"
                         id="path136"
                         inkscape:connector-curvature="0" />
                  <path
                         d="m 2.3293234,291.04377 c -6.187e-4,3.8e-4 -0.00123,3.2e-4 -0.00165,2.7e-4 5.593e-4,6e-5 0.00117,1.2e-4 0.00165,-2.7e-4"
                         style="fill:#a6a8a7;fill-opacity:1;fill-rule:nonzero;stroke:none;stroke-width:0.05820367"
                         id="path138"
                         inkscape:connector-curvature="0" />
                  <path
                         d="m 0.1901876,274.01368 c -0.57282083,-0.0569 -1.15526204,-0.0346 -1.5924819,0.10388 -0.1075384,0.0344 -0.2063506,0.0754 -0.2942407,0.12402 -0.00165,2.7e-4 -0.00346,10e-4 -0.00528,0.003 -6.022e-4,3.8e-4 -6.022e-4,3.8e-4 -6.022e-4,3.8e-4 -0.00181,0.001 -0.00346,0.002 -0.00363,0.003 -6.17e-4,3.8e-4 -0.00131,0.001 -0.00181,0.001 -6.187e-4,3.8e-4 -0.00131,10e-4 -0.00181,0.002 -0.2631803,0.15284 -0.5848748,0.53558 -0.9286857,1.09394 0.3811392,-0.1037 0.8490878,-0.18063 1.3217089,-0.13369 0.7946439,0.0789 1.60301633,0.50839 2.03758156,1.75118 0.95565284,2.7334 0.25389647,12.82634 0.13405174,14.44514 0.463362,-0.10137 0.9606618,-0.22044 1.4736337,-0.36192 5.593e-4,5e-5 0.00117,1.1e-4 0.00165,-2.7e-4 0.00858,-0.002 0.015344,-0.004 0.023527,-0.006 0.523267,-0.14514 0.8197136,-1.12173 0.9599556,-2.53379 0.4481602,-4.51245 -0.7061235,-13.46726 -1.1895281,-13.88259 -0.073287,-0.0634 -0.1684432,-0.12377 -0.2797285,-0.18103 -0.3568779,-0.18166 -0.88636988,-0.32725 -1.44340148,-0.40188 -0.0698884,-0.009 -0.13985927,-0.0174 -0.20988955,-0.0243"
                         style="fill:#d0d2cf;fill-opacity:1;fill-rule:nonzero;stroke:none;stroke-width:0.05820367"
                         id="path140"
                         inkscape:connector-curvature="0" />
                  <path
                         d="m 5.1314982,273.80665 v 0 c -0.3818668,-0.32452 -0.9549599,-0.2785 -1.2800779,0.10332 l -2.2224475,2.61311 c -0.3245257,0.38188 -0.2784993,0.95498 0.1033312,1.28009 0.3818668,0.32452 0.9549615,0.27849 1.2800778,-0.10332 l 2.2224426,-2.61312 c 0.3251015,-0.38182 0.278501,-0.95497 -0.1033312,-1.28008"
                         style="fill:#333436;fill-opacity:1;fill-rule:nonzero;stroke:none;stroke-width:0.05820367"
                         id="path142"
                         inkscape:connector-curvature="0" />
                  <path
                         d="m -3.5138625,284.14769 -1.8290695,-0.18166 c 0.056211,-0.4325 0.1177511,-0.85513 0.1874332,-1.2512 0.1194835,-0.6789 0.2632132,-1.33141 0.4201766,-1.95746 l 1.5429545,0.15324 -0.3214948,3.23708"
                         style="fill:#50c6e4;fill-opacity:1;fill-rule:nonzero;stroke:none;stroke-width:0.05820367"
                         id="path144"
                         inkscape:connector-curvature="0" />
                  <path
                         d="m -4.5972563,280.22128 c 0.090578,-0.33435 0.1862321,-0.65648 0.284683,-0.97015 l 1.2724686,0.12638 -0.098184,0.98867 -1.4589614,-0.14491"
                         style="fill:#50c6e4;fill-opacity:1;fill-rule:nonzero;stroke:none;stroke-width:0.05820367"
                         id="path146"
                         inkscape:connector-curvature="0" />
                </g>
                <path
                   inkscape:connector-curvature="0"
                   id="path148"
                   style="fill:#dddedb;fill-opacity:1;fill-rule:nonzero;stroke:none;stroke-width:0.05820367"
                   d="m 36.753458,299.22633 c 0,0 -1.828185,-6.22779 -2.741981,-7.15905 -0.913796,-0.93126 -4.021288,-3.27571 -5.849474,-1.82934 -1.827591,1.44636 0.961527,29.13849 0.961527,29.13849 h 7.629928 l 2.650001,-15.4455 0.232235,-1.22519 c 0.342249,-1.80664 -1.043591,-3.47941 -2.882236,-3.47941" />
                <path
                   inkscape:connector-curvature="0"
                   id="path150"
                   style="fill:#ffffff;fill-opacity:1;fill-rule:nonzero;stroke:none;stroke-width:0.05820367"
                   d="m 53.147087,236.8029 c 0,1.82352 -1.478364,3.30131 -3.30188,3.30131 -1.823533,0 -3.301319,-1.47779 -3.301319,-3.30131 0,-1.82352 1.477786,-3.30189 3.301319,-3.30189 1.823516,0 3.30188,1.47837 3.30188,3.30189" />
                <path
                   inkscape:connector-curvature="0"
                   id="path152"
                   style="fill:#d0d2cf;fill-opacity:1;fill-rule:nonzero;stroke:none;stroke-width:0.05820367"
                   d="m 34.011477,304.31973 v -12.25245 c 0.913796,0.93126 2.741981,7.15905 2.741981,7.15905 l -2.741981,5.0934" />
                <path
                   inkscape:connector-curvature="0"
                   id="path154"
                   style="fill:#d0d2cf;fill-opacity:1;fill-rule:nonzero;stroke:none;stroke-width:0.05820367"
                   d="m 36.752286,319.37643 h -2.740809 v -0.17111 l 2.740809,0.17111" />
                <path
                   inkscape:connector-curvature="0"
                   id="path156"
                   style="fill:#d0d2cf;fill-opacity:1;fill-rule:nonzero;stroke:none;stroke-width:0.05820367"
                   d="m 36.869856,318.69662 0.07391,-0.42955 -0.328274,-0.5768 c -0.626851,-1.10237 -1.534822,-1.98765 -2.604019,-2.5854 v -6.96989 l 3.675558,-8.7387 c 1.340435,0.45283 2.229203,1.82818 1.948659,3.30946 l -0.232235,1.22519 -2.533603,14.76569" />
                <path
                   inkscape:connector-curvature="0"
                   id="path158"
                   style="fill:#c3c5c2;fill-opacity:1;fill-rule:nonzero;stroke:none;stroke-width:0.05820367"
                   d="m 36.753458,319.37643 v 0 h -0.0012 0.0012 l 0.116316,-0.67981 -0.116316,0.67981 m -2.741981,-0.17111 -4.935084,-0.30849 c -0.0721,-0.73511 -0.220604,-2.28973 -0.399862,-4.32394 0.630348,-0.21769 1.303758,-0.337 2.000464,-0.337 1.187938,0 2.33222,0.30848 3.334482,0.86898 v 4.10045" />
                <path
                   inkscape:connector-curvature="0"
                   id="path160"
                   style="fill:#b7b9b7;fill-opacity:1;fill-rule:nonzero;stroke:none;stroke-width:0.05820367"
                   d="m 36.753458,319.37643 h -0.0012 l -2.74081,-0.17111 v -4.10045 c 1.069197,0.59775 1.977185,1.48303 2.604036,2.5854 l 0.328274,0.5768 -0.07391,0.42955 -0.116481,0.67981" />
                <path
                   inkscape:connector-curvature="0"
                   id="path162"
                   style="fill:#d3d5d2;fill-opacity:1;fill-rule:nonzero;stroke:none;stroke-width:0.05820367"
                   d="m 36.753458,319.37643 -0.68623,-1.20598 c -1.214121,-2.13607 -3.481748,-3.45496 -5.938517,-3.45496 -2.818221,0 -5.272085,1.92421 -5.943763,4.66094 h 12.56851" />
                <path
                   inkscape:connector-curvature="0"
                   id="path164"
                   style="fill:#50c6e4;fill-opacity:1;fill-rule:nonzero;stroke:none;stroke-width:0.05820367"
                   d="m 36.753458,320.77041 h -12.56851 v -1.39398 h 12.56851 v 1.39398" />
                <path
                   inkscape:connector-curvature="0"
                   id="path166"
                   style="fill:#c3c5c2;fill-opacity:1;fill-rule:nonzero;stroke:none;stroke-width:0.05820367"
                   d="m 32.977785,307.02678 h -0.323621 c 0.0815,-0.25784 0.132649,-0.52907 0.149643,-0.80961 0.0033,-0.0681 0.0066,-0.1362 0.0066,-0.20488 v 0 0 c 0,-0.004 0,-0.008 0,-0.0122 0,-4.4e-4 0,-0.002 0,-0.003 0,-0.003 0,-0.006 0,-0.009 0,-4.4e-4 0,-0.002 0,-0.002 0,-0.003 0,-0.007 0,-0.0104 0,-4.4e-4 0,-4.4e-4 0,-4.4e-4 -0.0033,-0.21419 -0.02508,-0.42372 -0.06583,-0.62685 h 0.233406 c 0.4633,0 0.839288,0.37599 0.839288,0.83988 0,0.46388 -0.375988,0.83929 -0.839288,0.83929" />
                <path
                   inkscape:connector-curvature="0"
                   id="path168"
                   style="fill:#d3d5d2;fill-opacity:1;fill-rule:nonzero;stroke:none;stroke-width:0.05820367"
                   d="m 32.810159,306.01229 c 0,1.85437 -1.503409,3.35777 -3.358355,3.35777 -1.854946,0 -3.358355,-1.5034 -3.358355,-3.35777 0,-1.85495 1.503409,-3.35835 3.358355,-3.35835 1.854946,0 3.358355,1.5034 3.358355,3.35835" />
                <path
                   inkscape:connector-curvature="0"
                   id="path170"
                   style="fill:#b8bab8;fill-opacity:1;fill-rule:nonzero;stroke:none;stroke-width:0.05820367"
                   d="m 32.810159,306.00007 c 0,-4.4e-4 0,-0.002 0,-0.003 0,10e-4 0,0.002 0,0.003 m 0,-0.0122 c 0,-4.4e-4 0,-0.002 0,-0.002 0,4.4e-4 0,0.002 0,0.002 m 0,-0.0129 v -4.4e-4 c 0,0 0,0 0,4.4e-4" />
                <path
                   inkscape:connector-curvature="0"
                   id="path172"
                   style="fill:#c6c8c6;fill-opacity:1;fill-rule:nonzero;stroke:none;stroke-width:0.05820367"
                   d="m 29.451804,309.37006 c -1.249049,0 -2.326396,-0.68972 -2.904939,-1.70187 0.573874,0.45748 1.291533,0.74267 2.082513,0.74267 1.854368,0 3.358355,-1.5034 3.358355,-3.35835 0,-0.60532 -0.173451,-1.16582 -0.4534,-1.65647 0.762469,0.60822 1.2636,1.53017 1.275826,2.57842 v 4.4e-4 c 0,0.003 0,0.007 0,0.0104 0,4.4e-4 0,0.002 0,0.002 0,0.003 0,0.006 0,0.009 0,10e-4 0,0.002 0,0.003 0,0.004 0,0.008 0,0.0122 0,0.0687 -0.0016,0.13677 -0.0066,0.20488 -0.105921,1.75891 -1.566268,3.15289 -3.351953,3.15289" />
                <path
                   inkscape:connector-curvature="0"
                   id="path174"
                   style="fill:#50c6e4;fill-opacity:1;fill-rule:nonzero;stroke:none;stroke-width:0.05820367"
                   d="m 32.000536,295.03159 h -4.308234 v -0.99354 h 4.308234 v 0.99354" />
                <path
                   inkscape:connector-curvature="0"
                   id="path176"
                   style="fill:#dddedb;fill-opacity:1;fill-rule:nonzero;stroke:none;stroke-width:0.05820367"
                   d="m 43.274593,299.22633 c 0,0 1.828168,-6.22779 2.741964,-7.15905 0.913812,-0.93126 4.021305,-3.27571 5.848896,-1.82934 1.828169,1.44636 -0.961526,29.13849 -0.961526,29.13849 h -7.629334 l -2.650018,-15.4455 -0.232235,-1.22519 c -0.342232,-1.80664 1.043013,-3.47941 2.882253,-3.47941" />
                <path
                   inkscape:connector-curvature="0"
                   id="path178"
                   style="fill:#afb1af;fill-opacity:1;fill-rule:nonzero;stroke:none;stroke-width:0.05820367"
                   d="m 43.278668,299.21236 c 0.09553,-0.32245 1.845047,-6.22721 2.734985,-7.14217 -0.889344,0.91496 -2.63954,6.81972 -2.734985,7.14217" />
                <path
                   inkscape:connector-curvature="0"
                   id="path180"
                   style="fill:#d0d2cf;fill-opacity:1;fill-rule:nonzero;stroke:none;stroke-width:0.05820367"
                   d="m 46.016557,304.31973 -2.741964,-5.0934 c 0,0 0.0016,-0.005 0.0033,-0.014 0.09553,-0.32245 1.845641,-6.2272 2.734986,-7.14217 0.0012,-10e-4 0.0016,-0.002 0.0033,-0.003 v 12.25258" />
                <path
                   inkscape:connector-curvature="0"
                   id="path182"
                   style="fill:#d0d2cf;fill-opacity:1;fill-rule:nonzero;stroke:none;stroke-width:0.05820367"
                   d="m 46.016557,319.37643 h -2.74081 l 2.74081,-0.17111 v 0.17111" />
                <path
                   inkscape:connector-curvature="0"
                   id="path184"
                   style="fill:#d0d2cf;fill-opacity:1;fill-rule:nonzero;stroke:none;stroke-width:0.05820367"
                   d="m 43.117443,318.46147 -2.492868,-14.53054 -0.232235,-1.22519 c -0.280544,-1.48128 0.60824,-2.85663 1.948658,-3.30946 l 3.675559,8.7387 v 6.96989 c -1.069774,0.59833 -1.977168,1.48303 -2.604613,2.5854 l -0.32768,0.5768 0.03316,0.1944" />
                <path
                   inkscape:connector-curvature="0"
                   id="path186"
                   style="fill:#c3c5c2;fill-opacity:1;fill-rule:nonzero;stroke:none;stroke-width:0.05820367"
                   d="m 43.274593,319.37643 v 0 l -0.157233,-0.91496 0.157233,0.91496 h 0.0012 -0.0012 m 2.741964,-0.17111 v -4.10045 c 1.002278,-0.5605 2.145983,-0.86898 3.334498,-0.86898 0.696689,0 1.369522,0.11931 2.000464,0.337 -0.179274,2.03421 -0.328274,3.58883 -0.399862,4.32394 l -4.9351,0.30849" />
                <path
                   inkscape:connector-curvature="0"
                   id="path188"
                   style="fill:#b7b9b7;fill-opacity:1;fill-rule:nonzero;stroke:none;stroke-width:0.05820367"
                   d="m 43.275747,319.37643 h -0.0012 l -0.157232,-0.91496 -0.03316,-0.1944 0.327681,-0.5768 c 0.627444,-1.10237 1.534838,-1.98707 2.604612,-2.5854 v 4.10045 l -2.740809,0.17111" />
                <path
                   inkscape:connector-curvature="0"
                   id="path190"
                   style="fill:#d3d5d2;fill-opacity:1;fill-rule:nonzero;stroke:none;stroke-width:0.05820367"
                   d="m 43.274593,319.37643 0.686212,-1.20598 c 1.214138,-2.13607 3.481749,-3.45496 5.938517,-3.45496 v 0 c 2.818222,0 5.272086,1.92421 5.943764,4.66094 H 43.274593" />
                <path
                   inkscape:connector-curvature="0"
                   id="path192"
                   style="fill:#50c6e4;fill-opacity:1;fill-rule:nonzero;stroke:none;stroke-width:0.05820367"
                   d="m 43.274593,320.77041 h 12.568493 v -1.39398 H 43.274593 v 1.39398" />
                <path
                   inkscape:connector-curvature="0"
                   id="path194"
                   style="fill:#c3c5c2;fill-opacity:1;fill-rule:nonzero;stroke:none;stroke-width:0.05820367"
                   d="m 47.37387,307.02678 h -0.323605 c -0.463299,0 -0.839304,-0.37541 -0.839304,-0.83929 0,-0.46389 0.376005,-0.83988 0.839304,-0.83988 h 0.23339 c -0.04075,0.20313 -0.06352,0.41266 -0.06583,0.62685 v 4.4e-4 c 0,0.003 0,0.007 0,0.0111 0,4.4e-4 0,0.001 0,0.002 0,0.003 0,0.006 0,0.009 0,10e-4 0,0.002 0,0.003 0,0.004 0,0.008 0,0.0122 v 0 0 c 0,0.0361 5.77e-4,0.0722 0.0016,0.10826 0.0099,0.31489 0.06352,0.61929 0.154263,0.90623" />
                <path
                   inkscape:connector-curvature="0"
                   id="path196"
                   style="fill:#d3d5d2;fill-opacity:1;fill-rule:nonzero;stroke:none;stroke-width:0.05820367"
                   d="m 47.217892,306.01229 c 0,1.85437 1.503392,3.35777 3.358355,3.35777 1.854368,0 3.358338,-1.5034 3.358338,-3.35777 0,-1.85495 -1.50397,-3.35835 -3.358338,-3.35835 -1.854963,0 -3.358355,1.5034 -3.358355,3.35835" />
                <path
                   inkscape:connector-curvature="0"
                   id="path198"
                   style="fill:#b8bab8;fill-opacity:1;fill-rule:nonzero;stroke:none;stroke-width:0.05820367"
                   d="m 47.217892,306.00007 c 0,-4.4e-4 0,-0.002 0,-0.003 0,10e-4 0,0.002 0,0.003 m 0,-0.0122 c 0,-4.4e-4 0,-10e-4 0,-0.002 0,4.4e-4 0,0.001 0,0.002 m 0,-0.0129 v -4.4e-4 4.4e-4" />
                <path
                   inkscape:connector-curvature="0"
                   id="path200"
                   style="fill:#c6c8c6;fill-opacity:1;fill-rule:nonzero;stroke:none;stroke-width:0.05820367"
                   d="m 50.576247,309.37006 c -1.818287,0 -3.299571,-1.44519 -3.356607,-3.24951 -0.0012,-0.0361 -0.0016,-0.0722 -0.0016,-0.10827 0,-0.004 0,-0.008 0,-0.0122 0,-0.001 0,-0.002 0,-0.003 0,-0.003 0,-0.006 0,-0.009 0,-4.4e-4 0,-0.001 0,-0.002 0,-0.004 0,-0.008 0,-0.0111 v -4.3e-4 c 0.01155,-1.04825 0.513356,-1.9702 1.275826,-2.57843 -0.280544,0.49066 -0.453417,1.05116 -0.453417,1.65648 0,1.85495 1.503409,3.35835 3.358355,3.35835 0.79098,0 1.508639,-0.2852 2.082529,-0.74268 -0.578543,1.01216 -1.65589,1.70187 -2.904955,1.70187" />
                <path
                   inkscape:connector-curvature="0"
                   id="path202"
                   style="fill:#50c6e4;fill-opacity:1;fill-rule:nonzero;stroke:none;stroke-width:0.05820367"
                   d="m 48.026921,295.03159 h 4.30881 v -0.99354 h -4.30881 v 0.99354" />
                <path
                   inkscape:connector-curvature="0"
                   id="path204"
                   style="fill:#50c6e4;fill-opacity:1;fill-rule:nonzero;stroke:none;stroke-width:0.05820367"
                   d="m 39.711951,288.06054 c 0.206035,0.002 0.411493,0.002 0.616951,0 v -11.43295 h -0.616951 v 11.43295" />
                <path
                   inkscape:connector-curvature="0"
                   id="path206"
                   style="fill:#85d7e9;fill-opacity:1;fill-rule:nonzero;stroke:none;stroke-width:0.05820367"
                   d="m 39.900531,288.06519 c 0.07969,0 0.160037,0 0.239792,0 v -11.8718 h -0.239792 v 11.8718" />
          </g>
        </g>
  </g>
</svg>
